<svg width="33" height="27" viewBox="0 0 33 27" fill="none" xmlns="http://www.w3.org/2000/svg">
	<path d="M27.9797 12.8376L27.021 12.5532V12.5532L27.9797 12.8376ZM26.5469 17.6678L27.5056 17.9522L26.5469 17.6678ZM6.45378 17.6678L7.41249 17.3834V17.3834L6.45378 17.6678ZM5.02092 12.8376L4.06221 13.122V13.122L5.02092 12.8376ZM12.1038 24.8821L12.3804 23.9212H12.3804L12.1038 24.8821ZM7.97701 21.8018L7.1344 22.3404L7.97701 21.8018ZM25.0236 21.8018L25.8662 22.3404L25.0236 21.8018ZM20.8969 24.8821L20.6202 23.9212L20.8969 24.8821ZM29.4401 7.66672V6.66672H28.6549L28.4686 7.42943L29.4401 7.66672ZM3.56057 7.66672V6.66672H2.2869L2.58913 7.90402L3.56057 7.66672ZM1.91699 6.66672C1.36471 6.66672 0.916992 7.11444 0.916992 7.66672C0.916992 8.21901 1.36471 8.66672 1.91699 8.66672V6.66672ZM31.0837 8.66672C31.6359 8.66672 32.0837 8.21901 32.0837 7.66672C32.0837 7.11444 31.6359 6.66672 31.0837 6.66672V8.66672ZM20.417 13.5001C20.417 12.9478 19.9693 12.5001 19.417 12.5001C18.8647 12.5001 18.417 12.9478 18.417 13.5001H20.417ZM18.417 19.3334C18.417 19.8857 18.8647 20.3334 19.417 20.3334C19.9693 20.3334 20.417 19.8857 20.417 19.3334H18.417ZM21.5825 1.12627C21.192 0.735743 20.5588 0.735743 20.1683 1.12627C19.7777 1.51679 19.7777 2.14996 20.1683 2.54048L21.5825 1.12627ZM13.1863 2.5405C13.5768 2.14998 13.5768 1.51681 13.1863 1.12629C12.7958 0.735765 12.1626 0.735765 11.7721 1.12629L13.1863 2.5405ZM14.5837 13.5001C14.5837 12.9478 14.1359 12.5001 13.5837 12.5001C13.0314 12.5001 12.5837 12.9478 12.5837 13.5001H14.5837ZM12.5837 19.3334C12.5837 19.8857 13.0314 20.3334 13.5837 20.3334C14.1359 20.3334 14.5837 19.8857 14.5837 19.3334H12.5837ZM27.021 12.5532L25.5882 17.3834L27.5056 17.9522L28.9384 13.122L27.021 12.5532ZM7.41249 17.3834L5.97962 12.5532L4.06221 13.122L5.49508 17.9522L7.41249 17.3834ZM16.5003 24.1667C14.165 24.1667 13.2004 24.1572 12.3804 23.9212L11.8271 25.8431C12.9842 26.1762 14.2917 26.1667 16.5003 26.1667V24.1667ZM5.49508 17.9522C6.12322 20.0696 6.48597 21.3258 7.1344 22.3404L8.81962 21.2633C8.36008 20.5443 8.07666 19.6223 7.41249 17.3834L5.49508 17.9522ZM12.3804 23.9212C10.9097 23.4978 9.64379 22.5528 8.81962 21.2633L7.1344 22.3404C8.22057 24.0398 9.88892 25.2851 11.8271 25.8431L12.3804 23.9212ZM25.5882 17.3834C24.924 19.6223 24.6406 20.5443 24.181 21.2633L25.8662 22.3404C26.5147 21.3258 26.8774 20.0696 27.5056 17.9522L25.5882 17.3834ZM16.5003 26.1667C18.709 26.1667 20.0165 26.1762 21.1735 25.8431L20.6202 23.9212C19.8002 24.1572 18.8357 24.1667 16.5003 24.1667V26.1667ZM24.181 21.2633C23.3569 22.5528 22.0909 23.4978 20.6202 23.9212L21.1735 25.8431C23.1117 25.2851 24.7801 24.0398 25.8662 22.3404L24.181 21.2633ZM28.9384 13.122C29.5535 11.0485 30.0612 9.33823 30.4115 7.90402L28.4686 7.42943C28.1325 8.80562 27.6411 10.4628 27.021 12.5532L28.9384 13.122ZM5.97962 12.5532C5.35951 10.4628 4.86817 8.80562 4.53201 7.42943L2.58913 7.90402C2.93947 9.33822 3.44712 11.0486 4.06221 13.122L5.97962 12.5532ZM18.417 13.5001V19.3334H20.417V13.5001H18.417ZM12.5837 13.5001V19.3334H14.5837V13.5001H12.5837ZM20.1683 2.54048L26.0016 8.37383L27.4158 6.95962L21.5825 1.12627L20.1683 2.54048ZM26.7087 8.66672H29.6253V6.66672H26.7087V8.66672ZM29.6253 8.66672H31.0837V6.66672H29.6253V8.66672ZM29.4401 8.66672H29.6253V6.66672H29.4401V8.66672ZM1.91699 8.66672H6.64585V6.66672H1.91699V8.66672ZM6.64585 8.66672H26.7087V6.66672H6.64585V8.66672ZM11.7721 1.12629L5.93874 6.95962L7.35296 8.37383L13.1863 2.5405L11.7721 1.12629ZM3.56057 8.66672H6.64585V6.66672H3.56057V8.66672Z" fill="black" />
</svg>
