<svg xmlns="http://www.w3.org/2000/svg" style="display: none;">
	<!-- Support icon -->
	<symbol id="facebook" viewBox="0 0 6 12">
		<path d="M1.29684 2.324V3.9762H0V5.9965H1.29684V12H3.96084V5.9966H5.7486C5.7486 5.9966 5.916 5.0279 5.99712 3.9687H3.97104V2.5874C3.97104 2.381 4.26144 2.1032 4.5486 2.1032H6V3.70852e-09H4.0266C1.23096 -9.99963e-05 1.29684 2.0222 1.29684 2.324Z" />
	</symbol>
	<symbol id="close" viewBox="0 0 14 14">
		<path d="M0 12.4443L12.4443 0L13.9999 1.55554L1.55554 13.9999L0 12.4443Z" />
		<path d="M12.4445 14L0.000124309 1.55567L1.55567 0.000125354L14 12.4445L12.4445 14Z" />
	</symbol>
	<symbol id="instagram" viewBox="0 0 12 12">
		<path d="M3.1765 0C1.4167 0 0 1.4167 0 3.1765V8.8235C0 10.5833 1.4167 12 3.1765 12H8.8235C10.5833 12 12 10.5833 12 8.8235V3.1765C12 1.4167 10.5833 0 8.8235 0H3.1765ZM9.5294 1.7647C9.9193 1.7647 10.2353 2.0807 10.2353 2.4706C10.2353 2.8604 9.9193 3.1765 9.5294 3.1765C9.1396 3.1765 8.8235 2.8604 8.8235 2.4706C8.8235 2.0807 9.1396 1.7647 9.5294 1.7647ZM6 2.647C7.8476 2.647 9.3529 4.1524 9.3529 6C9.3529 7.8476 7.8476 9.3529 6 9.3529C4.1524 9.3529 2.6471 7.8476 2.6471 6C2.6471 4.1524 4.1524 2.647 6 2.647ZM6 3.6765C4.7131 3.6765 3.6765 4.7131 3.6765 6C3.6765 7.2869 4.7131 8.3235 6 8.3235C7.2869 8.3235 8.3235 7.2869 8.3235 6C8.3235 4.7131 7.2869 3.6765 6 3.6765Z" />
	</symbol>
	<symbol id="telegram" viewBox="0 0 12 12">
		<path d="M3.28521 6.95302L4.13427 9.07552L4.98333 11.198L7.19406 8.98729L10.9845 12L13.6533 0L0 5.68708L3.28521 6.95302Z" />
	</symbol>
	<symbol id="youtube" viewBox="0 0 10 10">
		<path d="M0 10V0L10 5L0 10Z" />
	</symbol>
	<symbol id="tiktok" viewBox="0 0 13 14">
		<path d="M12.4434 3.67198C11.6673 3.67198 10.9513 3.41951 10.3762 2.99359C9.71673 2.50534 9.24289 1.78913 9.07556 0.963636C9.03412 0.759675 9.01181 0.549194 9.00969 0.333496H6.79269L6.79003 9.54068C6.79003 10.4118 6.21234 11.1505 5.41154 11.4102C5.17914 11.4856 4.92814 11.5213 4.66679 11.5073C4.33319 11.4893 4.02057 11.3904 3.74886 11.2308C3.17064 10.8912 2.77861 10.2751 2.76798 9.57041C2.75125 8.46897 3.65802 7.57097 4.77887 7.57097C5.00012 7.57097 5.21261 7.60644 5.41154 7.67086V5.46042C5.20172 5.42991 4.98817 5.414 4.77223 5.414C3.54541 5.414 2.39799 5.91477 1.57781 6.81694C0.957887 7.49872 0.58604 8.36856 0.52867 9.28064C0.453504 10.4788 0.899985 11.6178 1.76586 12.4582C1.89308 12.5816 2.02668 12.6961 2.16639 12.8017C2.90875 13.3627 3.81632 13.6668 4.77223 13.6668C4.98817 13.6668 5.20172 13.6512 5.41154 13.6207C6.30451 13.4908 7.12841 13.0894 7.77861 12.4582C8.57755 11.6828 9.01898 10.6533 9.02377 9.55763L9.01234 4.69179C9.39349 4.98051 9.81022 5.21942 10.2575 5.40487C10.9531 5.69307 11.6907 5.83913 12.4498 5.83887V3.67146C12.4503 3.67198 12.444 3.67198 12.4434 3.67198Z" />
	</symbol>
	<symbol id="search" viewBox="0 0 18 18">
		<path d="M17.1826 13.3381L15.3081 11.4255C14.9049 11.0436 14.3962 10.7906 13.8476 10.699C13.2989 10.6074 12.7353 10.6813 12.2291 10.9112L11.4141 10.0993C12.3745 8.82081 12.8131 7.22734 12.6416 5.63965C12.4702 4.05195 11.7013 2.58792 10.4899 1.54227C9.27848 0.496617 7.71442 -0.0530085 6.11258 0.0040342C4.51073 0.0610769 2.99005 0.720552 1.85666 1.8497C0.723261 2.97885 0.0613065 4.49384 0.00404937 6.08968C-0.0532078 7.68552 0.498484 9.24372 1.54807 10.4506C2.59765 11.6575 4.06718 12.4235 5.66085 12.5943C7.25452 12.7651 8.85397 12.3282 10.1372 11.3714L10.9432 12.1743C10.6852 12.6792 10.5927 13.252 10.6788 13.812C10.7649 14.3721 11.0253 14.891 11.4232 15.2958L13.343 17.2085C13.8524 17.7153 14.5429 18 15.2628 18C15.9827 18 16.6732 17.7153 17.1826 17.2085C17.4414 16.9564 17.647 16.6554 17.7873 16.3231C17.9277 15.9907 18 15.6338 18 15.2733C18 14.9127 17.9277 14.5558 17.7873 14.2235C17.647 13.8912 17.4414 13.5902 17.1826 13.3381ZM9.50335 9.51286C8.86966 10.1426 8.06285 10.5711 7.18484 10.7442C6.30684 10.9173 5.39702 10.8273 4.57033 10.4856C3.74363 10.1438 3.03715 9.56564 2.54013 8.82408C2.04311 8.08251 1.77784 7.21082 1.77784 6.31914C1.77784 5.42745 2.04311 4.55576 2.54013 3.8142C3.03715 3.07263 3.74363 2.49445 4.57033 2.15269C5.39702 1.81094 6.30684 1.72094 7.18484 1.89407C8.06285 2.0672 8.86966 2.49569 9.50335 3.12541C9.92501 3.54444 10.2596 4.04222 10.4878 4.59025C10.7161 5.13828 10.8336 5.7258 10.8336 6.31914C10.8336 6.91248 10.7161 7.49999 10.4878 8.04802C10.2596 8.59605 9.92501 9.09383 9.50335 9.51286ZM15.9057 15.8913C15.8216 15.9758 15.7214 16.043 15.6111 16.0888C15.5007 16.1346 15.3823 16.1581 15.2628 16.1581C15.1432 16.1581 15.0249 16.1346 14.9145 16.0888C14.8042 16.043 14.704 15.9758 14.6198 15.8913L12.7 13.9787C12.6151 13.8948 12.5478 13.795 12.5018 13.6851C12.4558 13.5751 12.4322 13.4572 12.4322 13.3381C12.4322 13.219 12.4558 13.1011 12.5018 12.9911C12.5478 12.8812 12.6151 12.7814 12.7 12.6976C12.7842 12.613 12.8844 12.5459 12.9947 12.5001C13.1051 12.4543 13.2234 12.4307 13.343 12.4307C13.4625 12.4307 13.5809 12.4543 13.6912 12.5001C13.8016 12.5459 13.9017 12.613 13.9859 12.6976L15.9057 14.6102C15.9906 14.694 16.058 14.7938 16.104 14.9038C16.1499 15.0137 16.1736 15.1316 16.1736 15.2507C16.1736 15.3698 16.1499 15.4877 16.104 15.5977C16.058 15.7076 15.9906 15.8074 15.9057 15.8913Z" />
	</symbol>
	<symbol id="heart" viewBox="-2 -1 24 18">
		<path fill-rule="evenodd" clip-rule="evenodd" d="M5.52488 0C2.27117 0 0 2.88148 0 6.24482C0 10.125 3.00414 13.7011 9.44934 17.8375C9.61716 17.9452 9.808 18 10 18C10.1919 18 10.3828 17.9453 10.5507 17.8375C16.9959 13.7011 20 10.125 20 6.24486C20 2.88333 17.7307 0 14.4751 0C12.7558 0 11.2569 0.816688 10.1456 2.32508C10.069 2.42902 10.0345 2.48099 10 2.48099C9.96549 2.48099 9.93098 2.42901 9.85441 2.32507C8.74306 0.816677 7.24422 0 5.52488 0Z" />
	</symbol>
	<symbol id="bag" viewBox="0 0 16 20">
		<path d="M15 5H12V4C12 2.93913 11.5786 1.92172 10.8284 1.17157C10.0783 0.421427 9.06087 0 8 0C6.93913 0 5.92172 0.421427 5.17157 1.17157C4.42143 1.92172 4 2.93913 4 4V5H1C0.734784 5 0.48043 5.10536 0.292893 5.29289C0.105357 5.48043 0 5.73478 0 6V17C0 17.7956 0.316071 18.5587 0.87868 19.1213C1.44129 19.6839 2.20435 20 3 20H13C13.7956 20 14.5587 19.6839 15.1213 19.1213C15.6839 18.5587 16 17.7956 16 17V6C16 5.73478 15.8946 5.48043 15.7071 5.29289C15.5196 5.10536 15.2652 5 15 5ZM6 4C6 3.46957 6.21071 2.96086 6.58579 2.58579C6.96086 2.21071 7.46957 2 8 2C8.53043 2 9.03914 2.21071 9.41421 2.58579C9.78929 2.96086 10 3.46957 10 4V5H6V4ZM14 17C14 17.2652 13.8946 17.5196 13.7071 17.7071C13.5196 17.8946 13.2652 18 13 18H3C2.73478 18 2.48043 17.8946 2.29289 17.7071C2.10536 17.5196 2 17.2652 2 17V7H4V8C4 8.26522 4.10536 8.51957 4.29289 8.70711C4.48043 8.89464 4.73478 9 5 9C5.26522 9 5.51957 8.89464 5.70711 8.70711C5.89464 8.51957 6 8.26522 6 8V7H10V8C10 8.26522 10.1054 8.51957 10.2929 8.70711C10.4804 8.89464 10.7348 9 11 9C11.2652 9 11.5196 8.89464 11.7071 8.70711C11.8946 8.51957 12 8.26522 12 8V7H14V17Z" />
	</symbol>
	<symbol id="user" viewBox="0 0 18 18">
		<path d="M12.3421 9.63839C13.2288 8.94458 13.876 7.99317 14.1937 6.91651C14.5114 5.83985 14.4837 4.69148 14.1146 3.63117C13.7455 2.57087 13.0532 1.65135 12.1341 1.00054C11.215 0.349732 10.1148 0 8.98659 0C7.85834 0 6.75814 0.349732 5.83906 1.00054C4.91997 1.65135 4.22771 2.57087 3.85858 3.63117C3.48945 4.69148 3.4618 5.83985 3.77948 6.91651C4.09717 7.99317 4.74439 8.94458 5.6311 9.63839C4.1117 10.2438 2.78598 11.2479 1.79525 12.5436C0.80453 13.8394 0.185949 15.3783 0.00545546 16.9961C-0.0076096 17.1143 0.00284753 17.2338 0.0362296 17.3479C0.0696116 17.462 0.125265 17.5684 0.200012 17.6612C0.35097 17.8484 0.570537 17.9683 0.810411 17.9946C1.05028 18.0208 1.29082 17.9512 1.47909 17.8011C1.66736 17.651 1.78796 17.4326 1.81434 17.194C2.01295 15.4357 2.85598 13.8118 4.18238 12.6326C5.50877 11.4533 7.22554 10.8014 9.00467 10.8014C10.7838 10.8014 12.5006 11.4533 13.827 12.6326C15.1534 13.8118 15.9964 15.4357 16.195 17.194C16.2196 17.4151 16.3256 17.6192 16.4927 17.767C16.6597 17.9149 16.8759 17.9959 17.0994 17.9946H17.1989C17.436 17.9674 17.6527 17.8482 17.8018 17.6629C17.9509 17.4776 18.0203 17.2411 17.9948 17.0051C17.8135 15.3827 17.1916 13.8399 16.1958 12.5421C15.2 11.2443 13.8678 10.2406 12.3421 9.63839ZM8.98659 8.99976C8.27106 8.99976 7.5716 8.78874 6.97666 8.3934C6.38172 7.99805 5.91802 7.43613 5.6442 6.7787C5.37037 6.12126 5.29873 5.39784 5.43832 4.69991C5.57792 4.00198 5.92248 3.36089 6.42843 2.85771C6.93439 2.35453 7.57901 2.01187 8.28079 1.87304C8.98257 1.73421 9.70999 1.80546 10.371 2.07778C11.0321 2.3501 11.5971 2.81126 11.9947 3.40293C12.3922 3.99461 12.6044 4.69023 12.6044 5.40183C12.6044 6.35606 12.2232 7.27121 11.5447 7.94595C10.8663 8.62069 9.94608 8.99976 8.98659 8.99976Z" />
	</symbol>
	<symbol id="card-decor" viewBox="0 0 20 25">
		<path d="M0 10C0 4.20348 4.47715 0 10 0C15.5228 0 20 4.20348 20 10C20 15.7278 15 18 10 25C5 18 0 15.7278 0 10Z" />
	</symbol>
	<symbol id="submit" viewBox="0 0 22 20">
		<path d="M19.5854 7.31637L5.27016 0.314359C4.70521 0.0392893 4.06729 -0.0586374 3.44337 0.0339303C2.81945 0.126498 2.2399 0.405055 1.78372 0.831623C1.32755 1.25819 1.01696 1.81201 0.8943 2.41757C0.771639 3.02313 0.842876 3.65097 1.0983 4.21548L3.55234 9.58702C3.60802 9.71689 3.6367 9.8563 3.6367 9.99713C3.6367 10.138 3.60802 10.2774 3.55234 10.4073L1.0983 15.7788C0.890422 16.2356 0.802543 16.7361 0.842647 17.2346C0.882752 17.7331 1.04957 18.2139 1.32794 18.6333C1.60631 19.0527 1.9874 19.3974 2.43659 19.6361C2.88578 19.8748 3.38882 19.9999 3.89999 20C4.37876 19.9953 4.85041 19.886 5.28039 19.6799L19.5956 12.6779C20.1034 12.428 20.5302 12.045 20.8284 11.5717C21.1267 11.0983 21.2846 10.5532 21.2846 9.99713C21.2846 9.44108 21.1267 8.89597 20.8284 8.4226C20.5302 7.94924 20.1034 7.56625 19.5956 7.31637H19.5854ZM18.6753 10.8874L4.36012 17.8894C4.17215 17.9777 3.96107 18.0077 3.75519 17.9753C3.54931 17.9429 3.35848 17.8497 3.20827 17.7082C3.05807 17.5667 2.95568 17.3837 2.91483 17.1836C2.87398 16.9836 2.89662 16.7761 2.97973 16.589L5.42354 11.2175C5.45517 11.1458 5.48249 11.0723 5.50534 10.9974H12.5505C12.8217 10.9974 13.0817 10.892 13.2735 10.7044C13.4653 10.5169 13.573 10.2624 13.573 9.99713C13.573 9.73184 13.4653 9.47742 13.2735 9.28983C13.0817 9.10224 12.8217 8.99685 12.5505 8.99685H5.50534C5.48249 8.92199 5.45517 8.84851 5.42354 8.77678L2.97973 3.40524C2.89662 3.21815 2.87398 3.01068 2.91483 2.81064C2.95568 2.61061 3.05807 2.42757 3.20827 2.28607C3.35848 2.14458 3.54931 2.05139 3.75519 2.019C3.96107 1.98661 4.17215 2.01658 4.36012 2.10487L18.6753 9.10688C18.8428 9.19082 18.9834 9.31835 19.0815 9.47543C19.1797 9.63251 19.2316 9.81304 19.2316 9.99713C19.2316 10.1812 19.1797 10.3618 19.0815 10.5188C18.9834 10.6759 18.8428 10.8034 18.6753 10.8874V10.8874Z" />
	</symbol>
	<symbol id="call" viewBox="0 0 21 20">
		<path d="M18.0046 11.0318C17.7788 11.0318 17.5428 10.9614 17.317 10.9111C16.8598 10.8122 16.4105 10.6811 15.9727 10.5185C15.4966 10.3486 14.9733 10.3575 14.5035 10.5433C14.0336 10.7291 13.6505 11.0788 13.4277 11.525L13.2019 11.978C12.2024 11.4326 11.284 10.7553 10.4723 9.96493C9.66645 9.16878 8.97587 8.26792 8.41985 7.28757L8.85086 7.00574C9.30584 6.78724 9.66236 6.41142 9.85181 5.95059C10.0413 5.48976 10.0502 4.9765 9.87706 4.50956C9.71412 4.07919 9.58042 3.63871 9.47684 3.19101C9.42553 2.96957 9.38448 2.73807 9.35369 2.50657C9.22908 1.79759 8.85047 1.15555 8.28606 0.69607C7.72164 0.236588 7.00851 -0.0101396 6.27509 0.000319374H3.19649C2.75423 -0.00375357 2.31627 0.0856863 1.91242 0.26255C1.50857 0.439414 1.14831 0.699549 0.856174 1.02525C0.564036 1.35094 0.346875 1.73456 0.219476 2.14997C0.0920768 2.56539 0.0574301 3.00285 0.117894 3.43257C0.66459 7.6493 2.62801 11.5672 5.69801 14.5674C8.76802 17.5676 12.7696 19.4791 17.0707 20H17.4607C18.2174 20.0011 18.948 19.7288 19.5131 19.235C19.8377 18.9502 20.0971 18.6011 20.274 18.2107C20.4509 17.8203 20.5413 17.3976 20.5393 16.9704V13.9508C20.5267 13.2516 20.2671 12.5784 19.8049 12.0461C19.3426 11.5138 18.7063 11.1553 18.0046 11.0318V11.0318ZM18.5177 17.071C18.5175 17.2139 18.4863 17.3552 18.4261 17.4853C18.3659 17.6155 18.2782 17.7316 18.1688 17.8259C18.0544 17.9235 17.9204 17.9964 17.7754 18.0398C17.6304 18.0831 17.4777 18.096 17.3273 18.0775C13.484 17.5942 9.91424 15.8697 7.18094 13.176C4.44763 10.4824 2.70639 6.97287 2.23187 3.20107C2.21553 3.05363 2.22985 2.90448 2.27394 2.76262C2.31804 2.62076 2.391 2.48914 2.48842 2.37572C2.58458 2.26836 2.70295 2.18231 2.83566 2.1233C2.96837 2.0643 3.11236 2.03368 3.25807 2.0335H6.33667C6.57531 2.02829 6.80833 2.10484 6.99563 2.24998C7.18294 2.39511 7.3128 2.59974 7.36287 2.82866C7.40391 3.10378 7.45522 3.37554 7.5168 3.64394C7.63534 4.17453 7.79311 4.69594 7.98885 5.20406L6.55217 5.8583C6.42933 5.91358 6.31883 5.99212 6.22702 6.0894C6.13522 6.18668 6.0639 6.30079 6.01718 6.42517C5.97046 6.54956 5.94925 6.68177 5.95476 6.81422C5.96028 6.94667 5.99242 7.07675 6.04933 7.19698C7.52624 10.2999 10.0692 12.7941 13.2327 14.2427C13.4826 14.3433 13.7628 14.3433 14.0126 14.2427C14.1406 14.1978 14.2582 14.1284 14.3586 14.0385C14.4591 13.9487 14.5403 13.8402 14.5976 13.7193L15.2338 12.3101C15.7643 12.4962 16.3058 12.6508 16.8552 12.7731C17.1289 12.8335 17.4059 12.8839 17.6864 12.9241C17.9198 12.9732 18.1285 13.1006 18.2764 13.2843C18.4244 13.468 18.5024 13.6966 18.4971 13.9306L18.5177 17.071Z" />
	</symbol>
	<symbol id="social" viewBox="0 0 22 20">
		<path d="M11.199 0C9.21202 0.00368884 7.26904 0.571902 5.60671 1.63543C3.94437 2.69896 2.63442 4.21189 1.83641 5.98996C1.03841 7.76803 0.786793 9.73448 1.11221 11.6498C1.43763 13.5651 2.32604 15.3466 3.66923 16.7773V16.7773C4.62855 17.7934 5.79286 18.6044 7.0888 19.159C8.38473 19.7137 9.78418 20 11.199 20C12.6138 20 14.0132 19.7137 15.3092 19.159C16.6051 18.6044 17.7694 17.7934 18.7287 16.7773V16.7773C20.0719 15.3466 20.9603 13.5651 21.2857 11.6498C21.6112 9.73448 21.3595 7.76803 20.5615 5.98996C19.7635 4.21189 18.4536 2.69896 16.7912 1.63543C15.1289 0.571902 13.1859 0.00368884 11.199 0V0ZM11.199 18.0186C9.07678 18.0155 7.03857 17.2081 5.51325 15.7663C5.97634 14.6647 6.76414 13.7225 7.77653 13.0594C8.78892 12.3963 9.98019 12.0422 11.199 12.0422C12.4178 12.0422 13.609 12.3963 14.6214 13.0594C15.6338 13.7225 16.4216 14.6647 16.8847 15.7663C15.3594 17.2081 13.3212 18.0155 11.199 18.0186ZM9.15006 8.00828C9.15006 7.61231 9.27023 7.22523 9.49537 6.89599C9.7205 6.56675 10.0405 6.31014 10.4149 6.15861C10.7893 6.00707 11.2012 5.96743 11.5987 6.04468C11.9961 6.12193 12.3612 6.31261 12.6478 6.5926C12.9343 6.87259 13.1295 7.22933 13.2085 7.61769C13.2876 8.00606 13.247 8.40861 13.0919 8.77444C12.9368 9.14027 12.6742 9.45295 12.3373 9.67294C12.0003 9.89293 11.6042 10.0103 11.199 10.0103C10.6556 10.0103 10.1344 9.79941 9.75018 9.42395C9.36593 9.04849 9.15006 8.53926 9.15006 8.00828ZM18.278 14.0145C17.3626 12.4847 15.9539 11.2947 14.2723 10.631C14.794 10.053 15.1338 9.34031 15.2512 8.5783C15.3685 7.8163 15.2584 7.03739 14.9339 6.33504C14.6094 5.6327 14.0844 5.03676 13.4219 4.61874C12.7595 4.20071 11.9876 3.97836 11.199 3.97836C10.4104 3.97836 9.63849 4.20071 8.976 4.61874C8.31351 5.03676 7.78853 5.6327 7.46406 6.33504C7.1396 7.03739 7.02943 7.8163 7.14677 8.5783C7.26411 9.34031 7.60399 10.053 8.12561 10.631C6.44406 11.2947 5.03531 12.4847 4.11999 14.0145C3.39052 12.8003 3.00509 11.4183 3.00333 10.0103C3.00333 7.88642 3.8668 5.84948 5.40378 4.34764C6.94076 2.8458 9.02535 2.00207 11.199 2.00207C13.3726 2.00207 15.4572 2.8458 16.9942 4.34764C18.5312 5.84948 19.3946 7.88642 19.3946 10.0103C19.3929 11.4183 19.0074 12.8003 18.278 14.0145V14.0145Z" />
	</symbol>
	<symbol id="keybord" viewBox="0 0 17 20">
		<path d="M14.5683 3C15.4157 3 16.1021 2.32876 16.1021 1.49998C16.102 0.671241 15.4157 0 14.5683 0C13.7209 0 13.0345 0.671241 13.0345 1.50002C13.0345 2.32876 13.7209 3 14.5683 3Z" />
		<path d="M2.29816 6C1.45074 6 0.764404 6.67123 0.764404 7.5C0.764404 8.32877 1.45074 9 2.29816 9C3.14554 9 3.83191 8.32877 3.83191 7.5C3.83191 6.67123 3.14554 6 2.29816 6Z" />
		<path d="M2.29816 0C1.45074 0 0.764404 0.671233 0.764404 1.5C0.764404 2.32873 1.45074 3 2.29816 3C3.14554 3 3.83191 2.32877 3.83191 1.5C3.83187 0.671233 3.14554 0 2.29816 0Z" />
		<path d="M2.29816 11C1.45074 11 0.764404 11.6712 0.764404 12.5C0.764404 13.3287 1.45074 14 2.29816 14C3.14554 14 3.83191 13.3288 3.83191 12.5C3.83187 11.6712 3.14554 11 2.29816 11Z" />
		<path d="M8.43329 17C7.58587 17 6.89954 17.6712 6.89954 18.5C6.89954 19.3287 7.58587 20 8.43329 20C9.2807 20 9.96704 19.3288 9.96704 18.5C9.96701 17.6712 9.28067 17 8.43329 17Z" />
		<path d="M14.5683 6C13.7209 6 13.0345 6.67123 13.0345 7.5C13.0345 8.32877 13.7209 9 14.5683 9C15.4157 9 16.1021 8.32877 16.1021 7.5C16.1021 6.67123 15.4157 6 14.5683 6Z" />
		<path d="M8.43329 11C7.58587 11 6.89954 11.6712 6.89954 12.5C6.89954 13.3287 7.58587 14 8.43329 14C9.2807 14 9.96704 13.3288 9.96704 12.5C9.96701 11.6712 9.28067 11 8.43329 11Z" />
		<path d="M14.5683 11C13.7209 11 13.0345 11.6712 13.0345 12.5C13.0345 13.3287 13.7209 14 14.5683 14C15.4157 14 16.1021 13.3288 16.1021 12.5C16.102 11.6712 15.4157 11 14.5683 11Z" />
		<path d="M8.43329 6C7.58587 6 6.89954 6.67123 6.89954 7.5C6.89954 8.32877 7.58587 9 8.43329 9C9.2807 9 9.96704 8.32877 9.96704 7.5C9.96704 6.67123 9.28067 6 8.43329 6Z" />
		<path d="M8.43329 0C7.58587 0 6.89954 0.671233 6.89954 1.5C6.89954 2.32873 7.58587 3 8.43329 3C9.2807 3 9.96704 2.32877 9.96704 1.5C9.96701 0.671233 9.28067 0 8.43329 0Z" />
	</symbol>
	<symbol id="arrow-left" viewBox="0 0 13 12">
		<path d="M11.5709 5.00009H3.98094L7.28094 1.7128C7.46924 1.52465 7.57503 1.26947 7.57503 1.00339C7.57503 0.737305 7.46924 0.48212 7.28094 0.293972C7.09264 0.105823 6.83724 0.00012207 6.57094 0.00012207C6.30464 0.00012207 6.04924 0.105823 5.86094 0.293972L0.860941 5.28985C0.769901 5.38488 0.698536 5.49693 0.650941 5.61958C0.550923 5.86284 0.550923 6.1357 0.650941 6.37896C0.698536 6.50161 0.769901 6.61366 0.860941 6.70869L5.86094 11.7046C5.9539 11.7982 6.06451 11.8726 6.18636 11.9233C6.30822 11.974 6.43893 12.0001 6.57094 12.0001C6.70295 12.0001 6.83366 11.974 6.95552 11.9233C7.07738 11.8726 7.18798 11.7982 7.28094 11.7046C7.37467 11.6117 7.44906 11.5012 7.49983 11.3794C7.5506 11.2577 7.57674 11.1271 7.57674 10.9952C7.57674 10.8632 7.5506 10.7327 7.49983 10.6109C7.44906 10.4891 7.37467 10.3786 7.28094 10.2857L3.98094 6.99845H11.5709C11.8362 6.99845 12.0905 6.89318 12.278 6.70579C12.4656 6.51841 12.5709 6.26427 12.5709 5.99927C12.5709 5.73427 12.4656 5.48013 12.278 5.29275C12.0905 5.10536 11.8362 5.00009 11.5709 5.00009Z" />
	</symbol>
	<symbol id="arrow-right" viewBox="0 0 13 12">
		<path d="M1.57591 5.00009H9.16591L5.86591 1.7128C5.67761 1.52465 5.57182 1.26947 5.57182 1.00339C5.57182 0.737305 5.67761 0.48212 5.86591 0.293972C6.05421 0.105823 6.30961 0.00012207 6.57591 0.00012207C6.84221 0.00012207 7.09761 0.105823 7.28591 0.293972L12.2859 5.28985C12.3769 5.38488 12.4483 5.49693 12.4959 5.61958C12.5959 5.86284 12.5959 6.1357 12.4959 6.37896C12.4483 6.50161 12.3769 6.61366 12.2859 6.70869L7.28591 11.7046C7.19295 11.7982 7.08235 11.8726 6.96049 11.9233C6.83863 11.974 6.70792 12.0001 6.57591 12.0001C6.4439 12.0001 6.31319 11.974 6.19133 11.9233C6.06947 11.8726 5.95887 11.7982 5.86591 11.7046C5.77218 11.6117 5.69779 11.5012 5.64702 11.3794C5.59625 11.2577 5.57011 11.1271 5.57011 10.9952C5.57011 10.8632 5.59625 10.7327 5.64702 10.6109C5.69779 10.4891 5.77218 10.3786 5.86591 10.2857L9.16591 6.99845H1.57591C1.31069 6.99845 1.05634 6.89318 0.868802 6.70579C0.681266 6.51841 0.57591 6.26427 0.57591 5.99927C0.57591 5.73427 0.681266 5.48013 0.868802 5.29275C1.05634 5.10536 1.31069 5.00009 1.57591 5.00009Z" />
	</symbol>
	<symbol id="arrow-down" viewBox="0 0 12 12">
		<path d="M7.00003 1.00499L7.00003 8.59499L10.2873 5.29499C10.4755 5.10668 10.7307 5.00089 10.9967 5.00089C11.2628 5.00089 11.518 5.10668 11.7062 5.29499C11.8943 5.48329 12 5.73868 12 6.00499C12 6.27129 11.8943 6.52668 11.7062 6.71499L6.71027 11.715C6.61524 11.806 6.50319 11.8774 6.38054 11.925C6.13728 12.025 5.86443 12.025 5.62117 11.925C5.49851 11.8774 5.38646 11.806 5.29144 11.715L0.295555 6.71499C0.201905 6.62202 0.127569 6.51142 0.0768426 6.38956C0.0261157 6.2677 2.5628e-07 6.137 2.6205e-07 6.00499C2.67821e-07 5.87297 0.0261157 5.74227 0.0768426 5.62041C0.127569 5.49855 0.201905 5.38795 0.295555 5.29499C0.388442 5.20126 0.498951 5.12686 0.62071 5.07609C0.742469 5.02533 0.873067 4.99919 1.00497 4.99919C1.13687 4.99919 1.26747 5.02533 1.38923 5.07609C1.51099 5.12686 1.6215 5.20126 1.71438 5.29499L5.00168 8.59499L5.00168 1.00499C5.00168 0.73977 5.10695 0.485415 5.29433 0.297879C5.48171 0.110343 5.73585 0.00498649 6.00085 0.0049865C6.26585 0.00498651 6.52 0.110343 6.70738 0.297879C6.89476 0.485415 7.00003 0.73977 7.00003 1.00499Z" />
	</symbol>
	<symbol id="delivery" viewBox="0 0 21 20">
		<path d="M5.50261 12H7.54764C7.81882 12 8.0789 11.8946 8.27066 11.7071C8.46242 11.5196 8.57015 11.2652 8.57015 11C8.57015 10.7348 8.46242 10.4804 8.27066 10.2929C8.0789 10.1054 7.81882 10 7.54764 10H5.50261C5.23142 10 4.97134 10.1054 4.77959 10.2929C4.58783 10.4804 4.4801 10.7348 4.4801 11C4.4801 11.2652 4.58783 11.5196 4.77959 11.7071C4.97134 11.8946 5.23142 12 5.50261 12ZM11.6377 14H5.50261C5.23142 14 4.97134 14.1054 4.77959 14.2929C4.58783 14.4804 4.4801 14.7348 4.4801 15C4.4801 15.2652 4.58783 15.5196 4.77959 15.7071C4.97134 15.8946 5.23142 16 5.50261 16H11.6377C11.9089 16 12.169 15.8946 12.3607 15.7071C12.5525 15.5196 12.6602 15.2652 12.6602 15C12.6602 14.7348 12.5525 14.4804 12.3607 14.2929C12.169 14.1054 11.9089 14 11.6377 14ZM17.7728 0H3.45758C2.64402 0 1.86378 0.316071 1.28851 0.87868C0.713232 1.44129 0.390045 2.20435 0.390045 3V17C0.390045 17.7956 0.713232 18.5587 1.28851 19.1213C1.86378 19.6839 2.64402 20 3.45758 20H17.7728C18.5863 20 19.3666 19.6839 19.9418 19.1213C20.5171 18.5587 20.8403 17.7956 20.8403 17V3C20.8403 2.20435 20.5171 1.44129 19.9418 0.87868C19.3666 0.316071 18.5863 0 17.7728 0ZM12.6602 2V5.29L11.1162 4.45C10.9608 4.36223 10.7844 4.31603 10.605 4.31603C10.4255 4.31603 10.2491 4.36223 10.0937 4.45L8.57015 5.29V2H12.6602ZM18.7953 17C18.7953 17.2652 18.6876 17.5196 18.4958 17.7071C18.304 17.8946 18.044 18 17.7728 18H3.45758C3.1864 18 2.92632 17.8946 2.73456 17.7071C2.5428 17.5196 2.43507 17.2652 2.43507 17V3C2.43507 2.73478 2.5428 2.48043 2.73456 2.29289C2.92632 2.10536 3.1864 2 3.45758 2H6.52512V7C6.5262 7.17451 6.57396 7.34571 6.66365 7.49658C6.75334 7.64746 6.88184 7.77274 7.03638 7.86C7.19182 7.94777 7.36815 7.99397 7.54764 7.99397C7.72713 7.99397 7.90345 7.94777 8.05889 7.86L10.6152 6.47L13.1817 7.87C13.3345 7.9547 13.5071 7.99947 13.6827 8C13.9539 8 14.214 7.89464 14.4057 7.70711C14.5975 7.51957 14.7052 7.26522 14.7052 7V2H17.7728C18.044 2 18.304 2.10536 18.4958 2.29289C18.6876 2.48043 18.7953 2.73478 18.7953 3V17Z" />
	</symbol>
	<symbol id="image" viewBox="0 0 21 17">
		<path d="M17.7832 2.99122H16.4744L16.1472 1.99415C15.9351 1.40911 15.5416 0.902869 15.0213 0.545578C14.501 0.188286 13.8796 -0.00236993 13.2433 2.22382e-05H8.00801C7.36541 0.0011945 6.73941 0.19912 6.21837 0.565863C5.69733 0.932606 5.30756 1.44965 5.10407 2.04401L4.77687 3.04107H3.46805C2.65449 3.04107 1.87425 3.35622 1.29897 3.91718C0.723699 4.47813 0.400513 5.23896 0.400513 6.03227V14.0088C0.400513 14.8021 0.723699 15.5629 1.29897 16.1239C1.87425 16.6849 2.65449 17 3.46805 17H17.7832C18.5968 17 19.377 16.6849 19.9523 16.1239C20.5276 15.5629 20.8508 14.8021 20.8508 14.0088V6.03227C20.8576 5.63529 20.7832 5.24096 20.6321 4.87227C20.481 4.50359 20.2561 4.16793 19.9706 3.88487C19.6851 3.60181 19.3446 3.37702 18.9691 3.22359C18.5935 3.07016 18.1904 2.99117 17.7832 2.99122ZM18.8057 13.9589C18.8057 14.2234 18.698 14.477 18.5063 14.664C18.3145 14.851 18.0544 14.956 17.7832 14.956H3.46805C3.19686 14.956 2.93678 14.851 2.74503 14.664C2.55327 14.477 2.44554 14.2234 2.44554 13.9589V5.98242C2.44554 5.71798 2.55327 5.46437 2.74503 5.27739C2.93678 5.0904 3.19686 4.98535 3.46805 4.98535H5.51308C5.73605 4.9967 5.95671 4.93657 6.14135 4.81414C6.32598 4.69172 6.46445 4.51372 6.53559 4.30735L7.08775 2.67216C7.15634 2.47412 7.28703 2.30211 7.46135 2.18045C7.63566 2.05878 7.84477 1.99362 8.05914 1.99415H13.2944C13.5088 1.99362 13.7179 2.05878 13.8922 2.18045C14.0665 2.30211 14.1972 2.47412 14.2658 2.67216L14.8179 4.30735C14.8836 4.49753 15.0065 4.66399 15.1707 4.78495C15.3349 4.90592 15.5327 4.97576 15.7382 4.98535H17.7832C18.0544 4.98535 18.3145 5.0904 18.5063 5.27739C18.698 5.46437 18.8057 5.71798 18.8057 5.98242V13.9589ZM10.6256 4.98535C9.81671 4.98535 9.02594 5.21926 8.35333 5.6575C7.68073 6.09573 7.15649 6.71861 6.84693 7.44737C6.53736 8.17614 6.45637 8.97804 6.61418 9.75169C6.772 10.5253 7.16154 11.236 7.73354 11.7937C8.30554 12.3515 9.03432 12.7314 9.82771 12.8852C10.6211 13.0391 11.4435 12.9602 12.1908 12.6583C12.9382 12.3564 13.577 11.8452 14.0264 11.1894C14.4758 10.5335 14.7157 9.76242 14.7157 8.97362C14.7157 7.91586 14.2848 6.90143 13.5177 6.15349C12.7507 5.40554 11.7104 4.98535 10.6256 4.98535ZM10.6256 10.9677C10.2212 10.9677 9.82579 10.8508 9.48949 10.6317C9.15319 10.4126 8.89107 10.1011 8.73629 9.73674C8.5815 9.37236 8.541 8.97141 8.61991 8.58458C8.69882 8.19776 8.89359 7.84244 9.17959 7.56355C9.46559 7.28467 9.82998 7.09475 10.2267 7.0178C10.6234 6.94086 11.0346 6.98035 11.4082 7.13128C11.7819 7.28221 12.1013 7.5378 12.326 7.86574C12.5507 8.19367 12.6707 8.57922 12.6707 8.97362C12.6707 9.50249 12.4552 10.0097 12.0717 10.3837C11.6882 10.7577 11.168 10.9677 10.6256 10.9677Z" />
	</symbol>
	<symbol id="quality" viewBox="0 0 21 20">
		<path d="M20.1298 8.08004C19.8425 7.74269 19.4829 7.47113 19.0766 7.28452C18.6702 7.0979 18.2269 7.0008 17.778 7.00004H13.1153L13.6879 5.57004C13.9261 4.94393 14.0054 4.27065 13.9191 3.60797C13.8327 2.94528 13.5833 2.31297 13.1922 1.76527C12.8011 1.21758 12.28 0.770841 11.6735 0.463388C11.0671 0.155934 10.3934 -0.00305943 9.71036 4.45912e-05C9.51367 0.000445953 9.32127 0.0563198 9.15623 0.160967C8.99119 0.265615 8.86051 0.414594 8.77987 0.590044L5.86571 7.00004H3.4628C2.64924 7.00004 1.869 7.31611 1.29373 7.87872C0.71845 8.44133 0.395264 9.2044 0.395264 10V17C0.395264 17.7957 0.71845 18.5588 1.29373 19.1214C1.869 19.684 2.64924 20 3.4628 20H16.4794C17.197 19.9998 17.8918 19.7535 18.4429 19.3041C18.9941 18.8546 19.3666 18.2304 19.4958 17.54L20.7944 10.54C20.8747 10.1074 20.8568 9.66283 20.742 9.23772C20.6271 8.81262 20.4181 8.4174 20.1298 8.08004ZM5.50783 18H3.4628C3.19162 18 2.93154 17.8947 2.73978 17.7072C2.54802 17.5196 2.44029 17.2653 2.44029 17V10C2.44029 9.73483 2.54802 9.48047 2.73978 9.29294C2.93154 9.1054 3.19162 9.00004 3.4628 9.00004H5.50783V18ZM18.8005 10.18L17.5019 17.18C17.4584 17.413 17.3317 17.6233 17.1444 17.7734C16.9572 17.9236 16.7215 18.0039 16.4794 18H7.55286V8.21004L10.3341 2.09004C10.6204 2.17167 10.8863 2.31045 11.1149 2.49763C11.3436 2.6848 11.5302 2.91631 11.6627 3.17754C11.7953 3.43876 11.8711 3.72404 11.8853 4.01535C11.8995 4.30666 11.8518 4.59768 11.7452 4.87004L11.2032 6.30005C11.0878 6.6023 11.0488 6.92739 11.0896 7.24758C11.1304 7.56776 11.2499 7.87353 11.4377 8.13878C11.6256 8.40404 11.8763 8.62091 12.1684 8.77088C12.4605 8.92086 12.7854 8.99948 13.1153 9.00004H17.778C17.9282 8.99981 18.0766 9.03194 18.2127 9.09416C18.3488 9.15638 18.4692 9.24716 18.5653 9.36004C18.6638 9.47137 18.736 9.60259 18.7766 9.74434C18.8173 9.88608 18.8254 10.0349 18.8005 10.18Z" />
	</symbol>
	<symbol id="support" viewBox="0 0 21 18">
		<path d="M18.811 10.18V8C18.811 5.87827 17.9492 3.84344 16.4151 2.34315C14.881 0.842855 12.8004 0 10.6309 0C8.46139 0 6.38075 0.842855 4.84669 2.34315C3.31262 3.84344 2.45079 5.87827 2.45079 8V10.18C1.8541 10.3863 1.33727 10.7681 0.971149 11.2729C0.605028 11.7778 0.40754 12.3811 0.405762 13V15C0.405762 15.7956 0.728948 16.5587 1.30422 17.1213C1.8795 17.6839 2.65974 18 3.4733 18H6.54084C6.81203 18 7.07211 17.8946 7.26387 17.7071C7.45563 17.5196 7.56335 17.2652 7.56335 17V11C7.56335 10.7348 7.45563 10.4804 7.26387 10.2929C7.07211 10.1054 6.81203 10 6.54084 10H4.49581V8C4.49581 6.4087 5.14219 4.88258 6.29274 3.75736C7.44329 2.63214 9.00377 2 10.6309 2C12.258 2 13.8185 2.63214 14.969 3.75736C16.1196 4.88258 16.766 6.4087 16.766 8V10H14.7209C14.4498 10 14.1897 10.1054 13.9979 10.2929C13.8062 10.4804 13.6984 10.7348 13.6984 11V17C13.6984 17.2652 13.8062 17.5196 13.9979 17.7071C14.1897 17.8946 14.4498 18 14.7209 18H17.7885C18.602 18 19.3823 17.6839 19.9576 17.1213C20.5328 16.5587 20.856 15.7956 20.856 15V13C20.8542 12.3811 20.6568 11.7778 20.2906 11.2729C19.9245 10.7681 19.4077 10.3863 18.811 10.18ZM5.51833 12V16H3.4733C3.20211 16 2.94203 15.8946 2.75028 15.7071C2.55852 15.5196 2.45079 15.2652 2.45079 15V13C2.45079 12.7348 2.55852 12.4804 2.75028 12.2929C2.94203 12.1054 3.20211 12 3.4733 12H5.51833ZM18.811 15C18.811 15.2652 18.7033 15.5196 18.5115 15.7071C18.3198 15.8946 18.0597 16 17.7885 16H15.7435V12H17.7885C18.0597 12 18.3198 12.1054 18.5115 12.2929C18.7033 12.4804 18.811 12.7348 18.811 13V15Z" />
	</symbol>
	<symbol id="flower-colors" viewBox="0 0 20 20">
		<path d="M17.6559 4.51763C16.6387 3.9777 15.4525 3.86188 14.3517 4.19501C14.2981 3.06432 13.8156 1.99784 13.0043 1.21678C12.193 0.435716 11.1152 0 9.99433 0C8.87348 0 7.79563 0.435716 6.98434 1.21678C6.17305 1.99784 5.69057 3.06432 5.63697 4.19501C4.53918 3.86112 3.35634 3.96578 2.33276 4.48738C1.57898 4.88751 0.957633 5.5017 0.545352 6.25421C0.133072 7.00672 -0.0521149 7.86464 0.0126288 8.72218C0.0773724 9.57971 0.389215 10.3994 0.909701 11.08C1.43019 11.7607 2.13655 12.2727 2.94169 12.5527C2.42778 13.2913 2.14918 14.1705 2.14309 15.0732C2.14753 15.3266 2.17089 15.5794 2.21297 15.8293C2.38108 16.8531 2.90406 17.7833 3.68853 18.4537C4.47299 19.124 5.46785 19.491 6.49546 19.489C6.70817 19.5037 6.92163 19.5037 7.13434 19.489C8.27538 19.3074 9.30042 18.6812 9.98934 17.7448C10.6854 18.6661 11.7095 19.2772 12.8443 19.4486C13.057 19.4634 13.2705 19.4634 13.4832 19.4486C14.28 19.4477 15.0612 19.2259 15.7417 18.8074C16.4222 18.389 16.976 17.7898 17.3425 17.0754C17.7091 16.361 17.8745 15.5586 17.8206 14.7558C17.7667 13.9529 17.4957 13.1805 17.037 12.5225C17.8461 12.2473 18.5571 11.7378 19.0816 11.0575C19.6062 10.3772 19.921 9.55614 19.987 8.69649C20.053 7.83685 19.8671 6.97659 19.4526 6.22281C19.0382 5.46902 18.4133 4.85498 17.6559 4.45714V4.51763ZM8.33224 2.56178C8.7782 2.13043 9.37185 1.88965 9.98934 1.88965C10.6068 1.88965 11.2005 2.13043 11.6464 2.56178C11.9869 2.90615 12.2181 3.34514 12.3106 3.82276C12.403 4.30038 12.3525 4.79499 12.1655 5.24351L11.906 5.83833L11.2471 6.42307C10.8421 6.28265 10.4176 6.20779 9.98934 6.20127C9.43588 6.2018 8.88857 6.31853 8.38216 6.54405L7.82314 5.24351C7.6294 4.79697 7.57435 4.30158 7.66525 3.82278C7.75614 3.34398 7.98872 2.90428 8.33224 2.56178ZM2.24292 9.45766C2.02007 8.96241 1.97122 8.40519 2.10445 7.8781C2.23768 7.35102 2.54501 6.88562 2.97564 6.55886C3.40627 6.23208 3.93442 6.0635 4.47278 6.08098C5.01114 6.09845 5.52748 6.30093 5.93644 6.65495L6.42559 7.08846L6.77497 7.895C6.27489 8.57073 6.00205 9.39035 5.99634 10.234C5.9845 10.3849 5.9845 10.5366 5.99634 10.6876H5.4473L4.60877 10.7683C4.12916 10.8194 3.64553 10.7213 3.22269 10.487C2.79985 10.2528 2.45799 9.89361 2.24292 9.45766ZM8.83137 15.5873C8.71119 16.1255 8.41105 16.6055 7.98148 16.9463C7.55191 17.2871 7.01916 17.4681 6.47295 17.4586C5.92675 17.4491 5.40046 17.2498 4.98273 16.8943C4.56499 16.5388 4.28133 16.0487 4.17952 15.5067C4.16995 15.3657 4.16995 15.2242 4.17952 15.0833C4.18314 14.6735 4.29284 14.2718 4.49773 13.9181C4.70262 13.5643 4.99556 13.2709 5.34748 13.0669L5.85658 12.704L6.76499 12.6032C7.33754 13.4076 8.18326 13.971 9.14083 14.186L8.83137 15.5873ZM9.98934 12.2503C9.59447 12.2503 9.20847 12.132 8.88014 11.9105C8.55182 11.6889 8.29592 11.374 8.14481 11.0056C7.9937 10.6371 7.95416 10.2317 8.0312 9.84058C8.10824 9.44945 8.29838 9.09017 8.5776 8.80818C8.85682 8.52619 9.21256 8.33416 9.59984 8.25636C9.98712 8.17855 10.3886 8.21848 10.7534 8.3711C11.1182 8.52371 11.43 8.78215 11.6494 9.11373C11.8687 9.44532 11.9858 9.83516 11.9858 10.234C11.9858 10.7687 11.7755 11.2816 11.4011 11.6597C11.0267 12.0379 10.5188 12.2503 9.98934 12.2503ZM15.7992 15.4966C15.6962 16.1117 15.3581 16.6614 14.8577 17.0273C14.3573 17.3931 13.7346 17.5458 13.1238 17.4525C12.6426 17.384 12.1935 17.1686 11.8367 16.8353C11.4799 16.502 11.2324 16.0666 11.1273 15.5873L10.9876 14.9824L11.1972 14.0549C12.1181 13.752 12.8986 13.1214 13.3934 12.2805L13.8925 12.583H13.9823L14.6412 12.9762C15.0692 13.2231 15.4107 13.5983 15.6182 14.0499C15.8256 14.5015 15.8889 15.0071 15.7992 15.4966ZM17.7358 9.44758C17.5394 9.84831 17.2366 10.186 16.861 10.4228C16.4855 10.6596 16.0522 10.7862 15.6095 10.7884H15.3699L14.731 10.6876L13.9823 10.2743C13.9809 9.29405 13.6261 8.34788 12.9841 7.61271L13.4133 7.23969L14.0422 6.65495C14.4524 6.28671 14.9765 6.07391 15.5249 6.053C16.0733 6.03209 16.6118 6.20436 17.0483 6.54032C17.4847 6.87628 17.792 7.35503 17.9174 7.8946C18.0428 8.43416 17.9786 9.00097 17.7358 9.49799V9.44758Z" />
	</symbol>
	<symbol id="flower" viewBox="0 0 36 40">
		<path d="M26.5504 8.97288C26.5504 11.9852 25.3691 14.8585 23.2756 17.0218C26.2342 16.3269 29.3643 16.7612 32.0268 18.2674C32.1769 18.3524 32.3241 18.441 32.4695 18.5318C33.9953 17.1774 35.0464 15.3639 35.4378 13.3453L35.8774 11.0787C36.0247 10.3193 35.574 9.55437 34.8291 9.29965L32.6061 8.53938C30.6264 7.86224 28.4979 7.84747 26.538 8.46499C26.5456 8.63384 26.5504 8.80309 26.5504 8.97288Z" fill="#656A25" />
		<path d="M12.7471 17.022C10.6536 14.8588 9.47237 11.9855 9.47237 8.97306C9.47237 8.80358 9.47716 8.63464 9.48457 8.4661C8.53858 8.16801 7.55367 8.01611 6.56486 8.01611C5.50491 8.01611 4.44082 8.18926 3.4166 8.53955L1.1936 9.29982C0.448642 9.55455 -0.00198632 10.3194 0.145299 11.0789L0.584843 13.3454C0.976302 15.364 2.0274 17.1776 3.55312 18.5319C3.69865 18.4412 3.84578 18.3524 3.99585 18.2676C6.65832 16.7614 9.78831 16.3271 12.7471 17.022Z" fill="#656A25" />
		<path d="M23.4879 32.7598C20.8255 31.2536 18.8765 28.8146 18.0113 25.9565C17.1461 28.8146 15.1972 31.2536 12.5347 32.7598C12.3847 32.8446 12.2326 32.9249 12.0797 33.0029C12.5138 34.9749 13.5912 36.7738 15.1796 38.1153L16.963 39.6216C17.5606 40.1263 18.4619 40.1263 19.0595 39.6216L20.843 38.1153C22.4314 36.7737 23.5087 34.9749 23.9429 33.0029C23.79 32.9249 23.638 32.8446 23.4879 32.7598Z" fill="#656A25" />
		<path d="M11.8646 8.97293C11.8646 11.6983 13.0728 14.2818 15.1796 16.0611L15.5203 16.3489C15.9126 16.091 16.3488 15.8931 16.8151 15.7665V10.5845C16.8151 9.93721 17.3506 9.41245 18.0112 9.41245C18.6718 9.41245 19.2074 9.93721 19.2074 10.5845V15.7665C19.6736 15.8931 20.1099 16.091 20.5022 16.3489L20.8429 16.0611C22.9496 14.2818 24.1579 11.6983 24.1579 8.97293C24.1579 6.24767 22.9496 3.66415 20.8429 1.88482L19.0596 0.378573C18.7608 0.126191 18.386 0 18.0113 0C17.6366 0 17.2619 0.126191 16.963 0.378573L15.1796 1.88482C13.0728 3.66415 11.8646 6.24767 11.8646 8.97293Z" fill="#973B3A" />
		<path d="M35.4379 26.6545C34.9186 23.9771 33.2395 21.66 30.8307 20.2974C28.4219 18.9348 25.5343 18.6683 22.9085 19.5664L22.4844 19.7114C22.4908 19.8069 22.4952 19.9029 22.4952 19.9998C22.4952 20.3804 22.4454 20.7498 22.3521 21.1021L26.9311 23.6925C27.5033 24.0162 27.6993 24.733 27.3689 25.2935C27.1474 25.6695 26.7453 25.8797 26.332 25.8797C26.129 25.8797 25.9234 25.8291 25.735 25.7225L21.1531 23.1305C20.8143 23.4569 20.4231 23.731 19.9929 23.9396L20.0767 24.3722C20.596 27.0496 22.2753 29.3667 24.684 30.7293C27.0926 32.0919 29.9802 32.3584 32.6061 31.4603L34.8291 30.7C35.5741 30.4453 36.0247 29.6804 35.8774 28.9209L35.4379 26.6545Z" fill="#973B3A" />
		<path d="M11.3386 30.7298C13.7473 29.3671 15.4266 27.05 15.9458 24.3726L16.0297 23.9401C15.5995 23.7315 15.2083 23.4574 14.8695 23.131L10.2876 25.723C9.71543 26.0466 8.98394 25.8547 8.65365 25.294C8.32327 24.7335 8.51928 24.0166 9.09144 23.693L13.6704 21.1026C13.5771 20.7502 13.5274 20.3809 13.5274 20.0003C13.5274 19.9034 13.5318 19.8073 13.5382 19.7119L13.1141 19.5669C10.4882 18.6688 7.60064 18.9353 5.19184 20.2979C2.78312 21.6605 1.10389 23.9777 0.584683 26.655L0.145139 28.9215C-0.00222598 29.681 0.448482 30.4459 1.19344 30.7006L3.41644 31.4609C6.04238 32.359 8.92996 32.0924 11.3386 30.7298Z" fill="#973B3A" />
		<path d="M18.0113 22.0496C19.1665 22.0496 20.1029 21.132 20.1029 20.0001C20.1029 18.8683 19.1665 17.9507 18.0113 17.9507C16.8562 17.9507 15.9197 18.8683 15.9197 20.0001C15.9197 21.132 16.8562 22.0496 18.0113 22.0496Z" fill="#656A25" />
	</symbol>
	<symbol id="new-category" viewBox="0 0 30 30">
		<path d="M26.1978 24.5656C26.1978 23.6671 26.1978 5.67846 26.1978 5.43439H11.9524V24.5656H9.01311V4.18017L5.82053 1H1V2.77376H5.08292L7.23237 4.91486V22.3822C6.70808 22.0793 6.10016 21.905 5.4517 21.905C3.48796 21.905 1.89034 23.4964 1.89034 25.4525C1.89034 27.4086 3.48796 29 5.4517 29C7.10808 29 8.50402 27.8678 8.90039 26.3394H25.4602L26.7193 27.5936V29H28.5V26.8589L26.1978 24.5656ZM5.4517 27.2262C4.46983 27.2262 3.67102 26.4305 3.67102 25.4525C3.67102 24.4744 4.46983 23.6787 5.4517 23.6787C6.43356 23.6787 7.23237 24.4744 7.23237 25.4525C7.23237 26.4305 6.43356 27.2262 5.4517 27.2262ZM18.1847 7.20815H19.9654V9.86878H18.1847V7.20815ZM13.733 7.20815H16.404V11.6425H21.7461V7.20815H24.4171V13.9231H13.733V7.20815ZM18.1847 15.6968H19.9654V18.3575H18.1847V15.6968ZM13.733 24.5656V15.6968H16.404V20.1312H21.7461V15.6968H24.4171V24.5656H13.733Z" />
	</symbol>
	<symbol id="flower-category" viewBox="0 0 30 30">
		<path d="M26.5775 16.823C26.4534 16.1701 26.2133 15.5539 25.8759 14.9995C26.2131 14.4453 26.4534 13.8296 26.5775 13.177L27.4542 8.56335C27.53 8.16419 27.3022 7.76962 26.9186 7.63574L22.4847 6.08814C21.8574 5.86922 21.2041 5.76937 20.5555 5.78435C20.244 5.21494 19.8305 4.69902 19.3271 4.26513L15.7699 1.19897C15.4622 0.933678 15.0065 0.933678 14.6988 1.19897L11.1416 4.26502C10.6381 4.69897 10.2246 5.21489 9.91313 5.7843C9.26453 5.76931 8.61124 5.86912 7.98397 6.08808L3.55007 7.63569C3.16644 7.76956 2.93866 8.16413 3.01451 8.56329L3.89121 13.177C4.01524 13.8296 4.25548 14.4452 4.5928 14.9994C4.25537 15.5539 4.0153 16.17 3.89121 16.823L3.01451 21.4367C2.93866 21.8358 3.16644 22.2304 3.55007 22.3643L7.98397 23.9119C8.57093 24.1167 9.18064 24.218 9.788 24.218C9.82989 24.218 9.87173 24.2169 9.91356 24.216C10.225 24.7852 10.6382 25.3011 11.1416 25.735L14.6988 28.801C14.8526 28.9337 15.0435 29 15.2343 29C15.4251 29 15.616 28.9337 15.7699 28.8011L19.3271 25.735C19.8304 25.3012 20.2437 24.7853 20.5551 24.216C20.5969 24.217 20.6388 24.218 20.6807 24.218C21.2879 24.218 21.8978 24.1167 22.4847 23.9119L26.9186 22.3643C27.3022 22.2305 27.53 21.8359 27.4542 21.4367L26.5775 16.823ZM21.2267 8.41017C21.2267 8.08626 21.1976 7.7659 21.1419 7.4521C21.4127 7.48469 21.6817 7.54551 21.944 7.63711L25.7103 8.95168L24.9657 12.8708C24.9138 13.1438 24.832 13.4072 24.7251 13.6582C24.4812 13.453 24.2181 13.2675 23.9375 13.1055C22.5573 12.3086 20.9027 12.1528 19.3979 12.678L19.0398 12.803L19.3271 12.5554C20.5343 11.5147 21.2267 10.0039 21.2267 8.41017ZM16.3392 15C16.3392 15.6092 15.8436 16.1049 15.2343 16.1049C14.6251 16.1049 14.1295 15.6092 14.1295 15C14.1295 14.3908 14.6251 13.8952 15.2343 13.8952C15.8436 13.8952 16.3392 14.3908 16.3392 15ZM12.2127 5.50774L15.2343 2.9033L18.256 5.50774C19.1012 6.23634 19.586 7.29422 19.586 8.41017C19.586 9.52612 19.1012 10.584 18.256 11.3126L16.6823 12.669C16.4879 12.5477 16.2774 12.4498 16.0546 12.3798V9.37327C16.0546 8.92024 15.6874 8.55296 15.2343 8.55296C14.7813 8.55296 14.414 8.92024 14.414 9.37327V12.3798C14.1912 12.4497 13.9808 12.5477 13.7863 12.669L12.2127 11.3126C11.3674 10.584 10.8826 9.52612 10.8826 8.41017C10.8826 7.29422 11.3674 6.23634 12.2127 5.50774ZM8.52461 7.63705C8.787 7.54545 9.05596 7.48426 9.32682 7.4515C9.27104 7.76546 9.24195 8.08604 9.24195 8.41011C9.24195 10.0039 9.93429 11.5147 11.1415 12.5552L11.4288 12.8028L11.0707 12.6778C9.56586 12.1526 7.91135 12.3085 6.53109 13.1053C6.25038 13.2674 5.98733 13.4529 5.74326 13.6582C5.63612 13.4073 5.5548 13.1437 5.50291 12.8706L4.75823 8.95152L8.52461 7.63705ZM4.75828 21.0483L5.50296 17.1293C5.71132 16.033 6.38502 15.0842 7.35145 14.5262C8.318 13.9682 9.47656 13.8591 10.5301 14.2268L12.4911 14.9113C12.4902 14.9408 12.4889 14.9702 12.4889 15C12.4889 15.2059 12.5124 15.4063 12.5556 15.5993L9.9513 17.1029C9.55892 17.3294 9.42449 17.8311 9.65106 18.2235C9.87764 18.6158 10.3793 18.7502 10.7716 18.5237L13.3769 17.0195C13.5463 17.1754 13.7351 17.3103 13.9394 17.42L13.5517 19.4604C13.3433 20.5568 12.6697 21.5055 11.7032 22.0635C10.7366 22.6215 9.57806 22.7305 8.52461 22.3629L4.75828 21.0483ZM18.256 24.4923L15.2343 27.0967L12.2127 24.4923C12.0021 24.3107 11.8142 24.1085 11.6504 23.8903C11.9503 23.7816 12.2427 23.6466 12.5235 23.4845C13.9037 22.6876 14.866 21.3326 15.1635 19.7669L15.2343 19.3942L15.3052 19.7668C15.6027 21.3326 16.5649 22.6876 17.9451 23.4845C18.226 23.6467 18.5185 23.7816 18.8185 23.8903C18.6547 24.1086 18.4666 24.3107 18.256 24.4923ZM21.944 22.3629C20.8905 22.7306 19.7318 22.6215 18.7654 22.0636C17.799 21.5056 17.1253 20.5568 16.9169 19.4605L16.5292 17.4201C16.7335 17.3103 16.9224 17.1754 17.0917 17.0196L19.697 18.5237C19.8262 18.5983 19.9672 18.6338 20.1064 18.6338C20.3899 18.6338 20.6656 18.4867 20.8175 18.2235C21.0441 17.8312 20.9097 17.3295 20.5173 17.103L17.913 15.5994C17.9562 15.4063 17.9798 15.2059 17.9798 15C17.9798 14.9703 17.9784 14.9409 17.9775 14.9114L19.9385 14.2269C20.9919 13.8592 22.1506 13.9682 23.1171 14.5263C24.0835 15.0842 24.7572 16.033 24.9656 17.1293L25.7103 21.0484L21.944 22.3629Z" />
	</symbol>
	<symbol id="box-category" viewBox="0 0 28 28">
		<path d="M26.3594 16.6567V14.875C26.3594 11.1654 24.7252 7.70591 21.8691 5.34641C21.813 5.21943 21.7489 5.09584 21.6768 4.97656C21.984 4.46917 22.1484 3.88598 22.1484 3.28125C22.1484 1.47197 20.6765 0 18.8672 0C17.411 0 16.0106 0.763766 14.788 2.21632C14.5374 2.14468 14.2733 2.10547 14 2.10547C13.7267 2.10547 13.4626 2.14468 13.212 2.21632C11.9894 0.763766 10.589 0 9.13281 0C7.32353 0 5.85156 1.47197 5.85156 3.28125C5.85156 3.88598 6.01601 4.46917 6.32324 4.97656C6.251 5.09584 6.18702 5.21948 6.13085 5.34641C3.2748 7.70596 1.64062 11.1655 1.64062 14.875V16.6567C0.685836 16.9953 0 17.9071 0 18.9766C0 20.046 0.685836 20.9578 1.64062 21.2964V22.2578C1.64062 25.4241 4.21657 28 7.38281 28H20.6172C23.7834 28 26.3594 25.4241 26.3594 22.2578V21.2964C27.3142 20.9578 28 20.046 28 18.9766C28 17.9071 27.3142 16.9953 26.3594 16.6567ZM21.9775 7.71488C23.7362 9.66777 24.7188 12.1964 24.7188 14.875V16.5156H23.0781V14.875C23.0781 12.7534 22.3579 10.7499 21.0325 9.13413C21.4617 8.75624 21.7914 8.26842 21.9775 7.71488ZM22.2601 18.1562C21.901 18.6334 21.6435 19.191 21.52 19.7969H17.2812V18.1562H22.2601ZM17.2812 16.5156V9.64327C17.7982 9.84818 18.3288 9.95312 18.8672 9.95312C19.0896 9.95312 19.3069 9.93065 19.517 9.88827C20.7586 11.2575 21.4375 13.0106 21.4375 14.875V16.5156H17.2812ZM16.1815 3.11314C16.8621 2.35003 17.7854 1.64062 18.8672 1.64062C19.7718 1.64062 20.5078 2.37661 20.5078 3.28125C20.5078 3.70338 20.3472 4.10468 20.0557 4.4112L19.518 4.97656L20.0557 5.54192C20.3472 5.84844 20.5078 6.24974 20.5078 6.67188C20.5078 7.57652 19.7718 8.3125 18.8672 8.3125C17.7854 8.3125 16.8621 7.60309 16.1815 6.83998C16.6109 6.33806 16.8711 5.68734 16.8711 4.97656C16.8711 4.26579 16.6109 3.61506 16.1815 3.11314ZM14 3.74609C14.6785 3.74609 15.2305 4.29805 15.2305 4.97656C15.2305 5.65507 14.6785 6.20703 14 6.20703C13.3215 6.20703 12.7695 5.65507 12.7695 4.97656C12.7695 4.29805 13.3215 3.74609 14 3.74609ZM7.94429 4.4112C7.65275 4.10468 7.49219 3.70338 7.49219 3.28125C7.49219 2.37661 8.22817 1.64062 9.13281 1.64062C10.2146 1.64062 11.1379 2.35003 11.8185 3.11314C11.3891 3.61506 11.1289 4.26579 11.1289 4.97656C11.1289 5.68734 11.3891 6.33806 11.8185 6.83998C11.1379 7.60309 10.2146 8.3125 9.13281 8.3125C8.22817 8.3125 7.49219 7.57652 7.49219 6.67188C7.49219 6.24974 7.65275 5.84844 7.94434 5.54192L8.48209 4.97656L7.94429 4.4112ZM6.5625 16.5156V14.875C6.5625 13.0106 7.24139 11.2575 8.48302 9.88827C8.69312 9.93065 8.9104 9.95312 9.13281 9.95312C9.67116 9.95312 10.2018 9.84818 10.7188 9.64327V16.5156H6.5625ZM10.7188 18.1562V19.7969H5.06297C5.40159 18.8421 6.3134 18.1562 7.38281 18.1562H10.7188ZM3.28125 14.875C3.28125 12.1964 4.26377 9.66782 6.02252 7.71488C6.20862 8.26842 6.53827 8.75624 6.96746 9.13413C5.64216 10.7499 4.92188 12.7534 4.92188 14.875V16.5156H3.28125V14.875ZM1.64062 18.9766C1.64062 18.5242 2.00862 18.1562 2.46094 18.1562H4.1038C3.74478 18.6334 3.48726 19.191 3.36377 19.7969H2.46094C2.00862 19.7969 1.64062 19.4289 1.64062 18.9766ZM7.38281 26.3594C5.12121 26.3594 3.28125 24.5194 3.28125 22.2578V21.4375H7.41016V22.2578C7.41016 23.8961 7.76349 25.3328 8.351 26.3594H7.38281ZM13.1797 26.3594H10.6914C10.0225 26.3594 9.05078 24.7616 9.05078 22.2578V21.4375H10.7188V24.7188L13.1797 23.0781V26.3594ZM12.3594 21.6532V8.61317C12.6517 8.35663 12.9364 8.06433 13.2121 7.73686C13.4626 7.8085 13.7268 7.84771 14 7.84771C14.2732 7.84771 14.5374 7.8085 14.7879 7.73686C15.0636 8.06433 15.3483 8.35663 15.6406 8.61317V21.6532L14 20.5595L12.3594 21.6532ZM18.9492 22.2578C18.9492 24.7616 17.9775 26.3594 17.3086 26.3594H14.8203V23.0781L17.2812 24.7188V21.4375H18.9492V22.2578ZM24.7188 22.2578C24.7188 24.5194 22.8788 26.3594 20.6172 26.3594H19.649C20.2365 25.3328 20.5898 23.8961 20.5898 22.2578V21.4375H24.7188V22.2578ZM25.5391 19.7969H23.2192C23.5578 18.8421 24.4696 18.1562 25.5391 18.1562C25.9914 18.1562 26.3594 18.5242 26.3594 18.9766C26.3594 19.4289 25.9914 19.7969 25.5391 19.7969Z" />
	</symbol>
	<symbol id="bear-category" viewBox="0 0 26 28">
		<path d="M15.608 8.31182C16.2142 8.31182 16.7072 7.82131 16.7072 7.21816C16.7072 6.61501 16.2142 6.12451 15.608 6.12451C15.0018 6.12451 14.5088 6.61501 14.5088 7.21816C14.5088 7.82131 15.0018 8.31182 15.608 8.31182Z" />
		<path d="M9.89215 8.31182C10.4983 8.31182 10.9913 7.82131 10.9913 7.21816C10.9913 6.61501 10.4983 6.12451 9.89215 6.12451C9.28595 6.12451 8.79297 6.61501 8.79297 7.21816C8.79297 7.82131 9.28595 8.31182 9.89215 8.31182Z" />
		<path d="M24.6409 15.6743C23.3197 14.5496 21.3636 14.0077 19.6534 13.6983C21.5004 12.3966 22.2763 9.32158 20.7091 6.19505C21.5032 5.53995 21.9836 4.55714 21.9836 3.49969C21.9836 1.56994 20.4057 0 18.4662 0C17.1952 0 16.0529 0.676916 15.4335 1.7254C13.7781 1.19596 11.8755 1.15369 10.0679 1.72524C10.051 1.73059 9.18996 0 7.03469 0C5.09518 0 3.5173 1.56994 3.5173 3.49969C3.5173 4.55714 3.99776 5.53995 4.79175 6.19505C3.55429 8.66375 3.5112 11.9316 5.84702 13.698C5.91407 13.7487 2.77525 14.044 0.859756 15.6745C-0.208209 16.584 -0.686023 20.3135 1.88601 21.3174C1.28519 22.3423 1.31894 23.195 1.31894 23.8416C1.31894 27.1191 4.95938 29.0821 7.71585 27.362C8.93083 27.7996 10.5155 27.9975 12.7504 27.9975C14.9869 27.9975 16.5722 27.7993 17.7875 27.361C20.5481 29.0891 24.1819 27.1108 24.1819 23.8416C24.1819 23.1647 24.2142 22.3396 23.6148 21.3172C26.1853 20.3139 25.7084 16.5834 24.6409 15.6743ZM17.5816 20.0226C15.7377 15.4997 9.7667 15.4969 7.9203 20.0201C7.48705 19.7117 7.00232 19.4903 6.48751 19.3661C6.85761 17.8392 7.64385 16.1091 9.29285 15.05C11.2685 15.3971 14.199 15.403 16.208 15.05C17.8576 16.1093 18.6438 17.8403 19.0137 19.3675C18.491 19.4946 18.0068 19.72 17.5816 20.0226ZM18.4662 1.74984C20.0038 1.74984 20.7955 3.58122 19.749 4.69505C19.0219 3.78097 18.095 2.99978 17.0719 2.43174C17.3972 2.01188 17.9067 1.74984 18.4662 1.74984ZM7.03469 1.74984C7.59417 1.74984 8.10375 2.01188 8.42894 2.43179C7.40583 2.99983 6.47899 3.78103 5.75183 4.6951C4.70722 3.58319 5.49303 1.74984 7.03469 1.74984ZM5.71567 9.62414C5.71567 6.26827 8.82855 3.06223 12.7504 3.06223C15.2351 3.06223 17.517 4.41015 18.7729 6.33662L18.7732 6.337C18.7975 6.37889 18.8132 6.39918 18.8206 6.41099C18.8413 6.47272 19.7851 7.7611 19.7851 9.62414C19.7851 11.3761 18.9652 12.6727 16.3299 13.2457C16.2796 13.2545 15.4604 13.4854 13.6297 13.5471V11.2989L14.2515 10.6803C14.8036 10.1309 14.4126 9.18668 13.6298 9.18668H11.8711C11.0902 9.18668 10.696 10.1297 11.2493 10.6803L11.8711 11.299V13.5471C10.3741 13.4966 9.69949 13.3379 9.26592 13.266C6.57424 12.7279 5.71567 11.394 5.71567 9.62414ZM2.0278 16.9833C3.09077 16.0948 4.88161 15.6422 6.40315 15.3798C5.59432 16.451 5.01769 17.7784 4.6942 19.3259C4.23881 19.4143 3.81002 19.5769 3.42025 19.8C2.33579 19.8528 2.06638 19.3663 1.97482 19.2006C1.55823 18.4464 1.83281 17.258 2.0278 16.9833ZM3.07763 23.8416V23.4042C3.07763 22.0774 4.16241 20.9981 5.49583 20.9981C6.40557 20.9981 7.19649 21.4959 7.60939 22.2342C7.95146 22.8442 7.91403 23.3324 7.91403 23.8416C7.91403 24.574 7.58554 25.2443 7.03546 25.6969C5.47824 26.9803 3.07763 25.8841 3.07763 23.8416ZM9.10076 25.9407C9.4741 25.3069 9.67272 24.5888 9.67272 23.8416C9.67272 23.2567 9.70564 22.555 9.28284 21.6507C9.56533 19.7662 11.0193 18.3734 12.7504 18.3734C14.4822 18.3734 15.9366 19.7673 16.2184 21.6529C15.7995 22.5461 15.8281 23.2287 15.8281 23.8416C15.8281 24.6068 16.038 25.3238 16.402 25.9402C14.5574 26.3541 10.9461 26.3542 9.10076 25.9407ZM22.4232 23.8416C22.4232 25.1683 21.3385 26.2476 20.005 26.2476C18.6716 26.2476 17.5868 25.1683 17.5868 23.8416V23.4042C17.5868 22.0774 18.6716 20.9981 20.005 20.9981C21.3385 20.9981 22.4232 22.0774 22.4232 23.4042V23.8416ZM23.526 19.2006C23.4346 19.3663 23.1651 19.8525 22.0805 19.7999C21.6908 19.5769 21.2621 19.4143 20.8067 19.3259C20.4833 17.7784 19.9066 16.451 19.0978 15.3798C20.6194 15.6422 22.4102 16.0948 23.4731 16.9832C23.6681 17.258 23.9427 18.4464 23.526 19.2006Z" />
	</symbol>
	<symbol id="happy-category" viewBox="0 0 28 28">
		<path d="M27.3024 22.3769C27.5521 22.2363 27.7103 21.9756 27.7198 21.6891L27.9995 13.1898C28.0097 12.8778 27.842 12.587 27.5668 12.4397C27.2916 12.2923 26.9566 12.3139 26.7025 12.4955L26.2342 12.8303C18.3404 18.4725 9.68842 19.054 9.4578 19.1388C4.67792 19.7107 1.29399 19.2038 0.899747 19.1857C0.586718 19.1553 0.284352 19.3061 0.120454 19.5742C-0.0434432 19.8422 -0.0398338 20.1804 0.129751 20.4449L4.73179 27.6224C4.88278 27.858 5.14315 28 5.42227 28C5.42692 28 5.43162 27.9999 5.43633 27.9999C5.72075 27.995 5.98232 27.8431 6.12763 27.5986L10.2302 20.6921C10.354 20.6755 10.4776 20.6572 10.6013 20.6394L16.2519 25.929C16.4596 26.1233 16.752 26.1956 17.0249 26.1225C17.2986 26.0491 17.5151 25.8396 17.5975 25.5684L19.7231 18.5678L26.4978 22.3772C26.7476 22.5176 27.0526 22.5176 27.3024 22.3769ZM5.39575 25.6183L2.41185 20.9644C4.3276 21.093 6.2632 21.0737 8.19021 20.9139L5.39575 25.6183ZM16.4107 23.8303L12.6332 20.2942C14.43 19.9412 16.1984 19.4669 17.9141 18.8787L16.4107 23.8303ZM26.1244 20.285L21.2665 17.5534C23.038 16.7537 24.7287 15.8242 26.3058 14.7738L26.1244 20.285Z" />
		<path d="M22.2031 28C22.6561 28 23.0234 27.6327 23.0234 27.1797V26.3594H23.8437C24.2968 26.3594 24.664 25.9921 24.664 25.5391C24.664 25.086 24.2968 24.7187 23.8437 24.7187H23.0234V23.8984C23.0234 23.4454 22.6561 23.0781 22.2031 23.0781C21.7501 23.0781 21.3828 23.4454 21.3828 23.8984V24.7187H20.5625C20.1095 24.7187 19.7422 25.086 19.7422 25.5391C19.7422 25.9921 20.1095 26.3594 20.5625 26.3594H21.3828V27.1797C21.3828 27.6327 21.75 28 22.2031 28Z" />
		<path d="M10.7187 26.3047C11.1718 26.3047 11.5391 25.9374 11.5391 25.4844C11.5391 25.0313 11.1718 24.6641 10.7187 24.6641C10.2657 24.6641 9.89844 25.0313 9.89844 25.4844C9.89844 25.9374 10.2657 26.3047 10.7187 26.3047Z" />
		<path d="M20.5625 11.5391C21.0155 11.5391 21.3828 11.1718 21.3828 10.7187C21.3828 10.2657 21.0155 9.89844 20.5625 9.89844C20.1095 9.89844 19.7422 10.2657 19.7422 10.7187C19.7422 11.1718 20.1095 11.5391 20.5625 11.5391Z" />
		<path d="M15.6406 14.8203C16.0937 14.8203 16.4609 14.453 16.4609 14C16.4609 13.547 16.0937 13.1797 15.6406 13.1797C15.1876 13.1797 14.8203 13.547 14.8203 14C14.8203 14.453 15.1876 14.8203 15.6406 14.8203Z" />
		<path d="M0.82031 13.1797C1.27335 13.1797 1.64062 12.8124 1.64062 12.3594C1.64062 11.9063 1.27335 11.5391 0.82031 11.5391C0.367265 11.5391 0 11.9063 0 12.3594C0 12.8124 0.367265 13.1797 0.82031 13.1797Z" />
		<path d="M27.7427 0.223845C27.5151 0.00892407 27.1849 -0.0576849 26.8918 0.0521817C26.4982 0.161665 21.2867 2.50474 13.9453 2.49402C6.65563 2.48347 1.50973 0.164783 1.10827 0.0522364C0.814984 -0.0576849 0.484892 0.00892407 0.257283 0.223845C0.0295659 0.438766 -0.0559102 0.764483 0.036894 1.06351C2.78618 10.0698 2.50165 9.13764 2.52243 9.20567C2.60615 9.48026 2.82736 9.69108 3.10567 9.76157C3.38392 9.83201 3.67873 9.752 3.88316 9.55031L9.43817 4.06972L13.3019 10.3293C13.4513 10.5714 13.7155 10.7188 14 10.7188C14.2844 10.7188 14.5486 10.5714 14.698 10.3293L18.5617 4.06989L24.1168 9.55031C24.3212 9.75194 24.6161 9.83206 24.8943 9.76157C25.1726 9.69108 25.3938 9.48026 25.4776 9.20567C25.4983 9.13759 25.2138 10.0698 27.963 1.06351C28.0558 0.764483 27.9704 0.438766 27.7427 0.223845ZM3.69602 7.4302L2.08679 2.1548C3.89371 2.77364 5.73443 3.2492 7.59904 3.57951L3.69602 7.4302ZM14 8.33669L11.351 4.04517C12.2305 4.10855 13.1137 4.14087 13.9999 4.14093C14.0001 4.14093 13.9998 4.14093 14.0001 4.14093C14.8861 4.14093 15.7694 4.10855 16.6489 4.04517L14 8.33669ZM24.3039 7.4302L20.4008 3.57951C22.2654 3.24914 24.1062 2.77364 25.9131 2.1548L24.3039 7.4302Z" />
		<path d="M11.539 14C11.539 12.643 10.4351 11.5391 9.07812 11.5391C7.72116 11.5391 6.61719 12.643 6.61719 14C6.61719 15.3569 7.72116 16.4609 9.07812 16.4609C10.4351 16.4609 11.539 15.3569 11.539 14ZM8.25781 14C8.25781 13.5477 8.6258 13.1797 9.07812 13.1797C9.53044 13.1797 9.89843 13.5477 9.89843 14C9.89843 14.4523 9.53044 14.8203 9.07812 14.8203C8.6258 14.8203 8.25781 14.4523 8.25781 14Z" />
	</symbol>
	<symbol id="select-arrow" viewBox="0 0 10 6">
		<path d="M8.82083 3.34028e-07L5 3.71005L1.17917 0L0 1.14498L5 6L10 1.14498L8.82083 3.34028e-07Z" />
	</symbol>
	<symbol id="card" viewBox="0 0 20 20">
		<path d="M16 4H4C3 4 2 5 2 6V14C2 15 3 16 4 16H16C17 16 18 15 18 14V6C18 5 17 4 16 4ZM16 14H4V12H16V14ZM16 10H4V6H16L16 10Z" />
	</symbol>
	<symbol id="new-post" viewBox="0 0 20 20">
		<path d="M9 9H11V5H14L10 1L6 5H9V9ZM5 6L1 10L5 14V6ZM19 10L15 6V14L19 10ZM11 11H9V15H6L10 19L14 15H11V11Z" fill="#973B3A" />
	</symbol>
	<symbol id="wallet" viewBox="0 0 20 20">
		<path d="M17 15C17 16 16 17 15 17H5C4 17 3 16 3 15V5C3 4 4 3 5 3H15C16 3 17 4 17 5H6C4.89474 5 5 4.88889 5 6V14C5 15.1111 4.89474 15 6 15H17ZM7 13H17V7H7V13Z" />
		<path d="M15 9V11H13V9H15Z" />
	</symbol>
	<symbol id="car" viewBox="0 0 20 20">
		<path d="M13.6364 5H3.45455C2.65091 5 2 5.63929 2 6.42857V12.8571H3.45455C3.45455 14.0393 4.43273 15 5.63636 15C6.84 15 7.81818 14.0393 7.81818 12.8571H11.8182C11.8182 14.0393 12.7964 15 14 15C15.2036 15 16.1818 14.0393 16.1818 12.8571H18V9.28571L13.6364 5ZM3.45455 9.28571V6.42857H6.36364V9.28571H3.45455ZM5.63636 13.9286C5.03273 13.9286 4.54545 13.45 4.54545 12.8571C4.54545 12.2643 5.03273 11.7857 5.63636 11.7857C6.24 11.7857 6.72727 12.2643 6.72727 12.8571C6.72727 13.45 6.24 13.9286 5.63636 13.9286ZM10.7273 9.28571H7.81818V6.42857H10.7273V9.28571ZM14 13.9286C13.3964 13.9286 12.9091 13.45 12.9091 12.8571C12.9091 12.2643 13.3964 11.7857 14 11.7857C14.6036 11.7857 15.0909 12.2643 15.0909 12.8571C15.0909 13.45 14.6036 13.9286 14 13.9286ZM12.1818 9.28571V6.42857H12.9091L15.8182 9.28571H12.1818Z" />
	</symbol>
	<symbol id="bank" viewBox="0 0 20 20">
		<path d="M5 9V14H7V9H5ZM9 9V14H11.1053L11 9H9ZM3 17H17V15H3V17ZM13 9V14H15V9H13ZM10 3L3 7V8H17V7L10 3Z" />
	</symbol>
	<symbol id="delete" viewBox="0 0 14 16">
		<path d="M5.44444 12.8C5.65072 12.8 5.84855 12.7157 5.99442 12.5657C6.14028 12.4157 6.22222 12.2122 6.22222 12V7.2C6.22222 6.98783 6.14028 6.78434 5.99442 6.63432C5.84855 6.48429 5.65072 6.4 5.44444 6.4C5.23816 6.4 5.04033 6.48429 4.89447 6.63432C4.74861 6.78434 4.66667 6.98783 4.66667 7.2V12C4.66667 12.2122 4.74861 12.4157 4.89447 12.5657C5.04033 12.7157 5.23816 12.8 5.44444 12.8ZM13.2222 3.2H10.1111V2.4C10.1111 1.76348 9.86528 1.15303 9.42769 0.702944C8.99011 0.252856 8.39662 0 7.77778 0H6.22222C5.60338 0 5.00989 0.252856 4.57231 0.702944C4.13472 1.15303 3.88889 1.76348 3.88889 2.4V3.2H0.777778C0.571498 3.2 0.373667 3.28429 0.227806 3.43431C0.0819442 3.58434 0 3.78783 0 4C0 4.21217 0.0819442 4.41566 0.227806 4.56569C0.373667 4.71571 0.571498 4.8 0.777778 4.8H1.55556V13.6C1.55556 14.2365 1.80139 14.847 2.23897 15.2971C2.67656 15.7471 3.27005 16 3.88889 16H10.1111C10.7299 16 11.3234 15.7471 11.761 15.2971C12.1986 14.847 12.4444 14.2365 12.4444 13.6V4.8H13.2222C13.4285 4.8 13.6263 4.71571 13.7722 4.56569C13.9181 4.41566 14 4.21217 14 4C14 3.78783 13.9181 3.58434 13.7722 3.43431C13.6263 3.28429 13.4285 3.2 13.2222 3.2ZM5.44444 2.4C5.44444 2.18783 5.52639 1.98434 5.67225 1.83431C5.81811 1.68429 6.01594 1.6 6.22222 1.6H7.77778C7.98406 1.6 8.18189 1.68429 8.32775 1.83431C8.47361 1.98434 8.55556 2.18783 8.55556 2.4V3.2H5.44444V2.4ZM10.8889 13.6C10.8889 13.8122 10.8069 14.0157 10.6611 14.1657C10.5152 14.3157 10.3174 14.4 10.1111 14.4H3.88889C3.68261 14.4 3.48478 14.3157 3.33892 14.1657C3.19306 14.0157 3.11111 13.8122 3.11111 13.6V4.8H10.8889V13.6ZM8.55556 12.8C8.76184 12.8 8.95967 12.7157 9.10553 12.5657C9.25139 12.4157 9.33333 12.2122 9.33333 12V7.2C9.33333 6.98783 9.25139 6.78434 9.10553 6.63432C8.95967 6.48429 8.76184 6.4 8.55556 6.4C8.34928 6.4 8.15145 6.48429 8.00558 6.63432C7.85972 6.78434 7.77778 6.98783 7.77778 7.2V12C7.77778 12.2122 7.85972 12.4157 8.00558 12.5657C8.15145 12.7157 8.34928 12.8 8.55556 12.8Z" />
	</symbol>
	<symbol id="haire" viewBox="0 0 30 30">
		<path d="M28.9974 6.50703L27.2766 4.78573C25.9997 3.50845 23.9079 3.48412 22.6067 4.73099C22.3635 4.9013 21.1838 5.70416 19.7853 6.209C18.0037 6.84764 16.6659 6.73208 15.7964 5.86231C14.6107 4.67625 14.6107 2.74816 15.7964 1.5621C16.1126 1.24582 16.1552 0.747073 15.8937 0.382134C15.6322 0.0171946 15.1519 -0.104452 14.7505 0.0962648C11.5035 1.70808 8.62127 3.75174 6.18294 6.19075C3.75069 8.62368 1.70152 11.5067 0.0962379 14.7547C-0.104423 15.1561 0.0171898 15.6366 0.382027 15.8981C0.746864 16.1597 1.23939 16.1171 1.56167 15.8008C2.74739 14.6148 4.67494 14.6148 5.86067 15.8008C6.73019 16.6706 6.84573 18.0087 6.20726 19.7908C5.70865 21.1837 4.89993 22.3697 4.72967 22.613C3.48922 23.9146 3.51355 26.013 4.7844 27.2842L6.50521 29.0055C7.83079 30.3315 9.99549 30.3315 11.3211 29.0055C11.9899 28.3365 12.3913 27.71 12.5493 27.0774C12.5737 26.974 12.598 26.8706 12.6102 26.7612C12.7135 26.749 12.823 26.7308 12.9263 26.7003C13.5527 26.5422 14.185 26.1408 14.8539 25.4717C15.5228 24.8027 15.9241 24.1762 16.0822 23.5436C16.1065 23.4402 16.1308 23.3368 16.143 23.2273C16.2464 23.2152 16.3558 23.1969 16.4592 23.1665C17.0855 23.0084 17.7179 22.6069 18.3867 21.9379C19.0556 21.2688 19.4569 20.6423 19.615 20.0098C19.6333 19.949 19.6454 19.8821 19.6576 19.8212L19.7002 19.8638L19.7184 19.6935L19.8887 19.6753L19.8461 19.6327C19.9069 19.6205 19.9738 19.6084 20.0346 19.5901C20.667 19.432 21.2933 19.0305 21.9621 18.3615C22.631 17.6924 23.0323 17.0659 23.1904 16.4334C23.2148 16.33 23.2391 16.2266 23.2512 16.1171C23.3546 16.1049 23.4641 16.0867 23.5674 16.0563C24.1998 15.8981 24.8261 15.4967 25.495 14.8276C26.1639 14.1586 26.5652 13.5321 26.7233 12.8996C26.7476 12.7962 26.7719 12.6928 26.7841 12.5833C26.8874 12.5711 26.9969 12.5529 27.1003 12.5224C27.7327 12.3643 28.359 11.9629 29.0278 11.2938C30.3291 9.99829 30.3291 7.83906 28.9974 6.50703ZM3.06966 13.1307C4.32227 11.0627 5.81202 9.16501 7.48419 7.48629C7.48419 7.48629 7.48419 7.48629 7.49027 7.4802C9.16244 5.80756 11.0657 4.3174 13.1331 3.06444C12.9324 4.56677 13.4371 6.07519 14.5134 7.15176C14.556 7.19433 14.5985 7.23691 14.6472 7.27949L13.7837 8.14318L12.6649 7.02403C12.3122 6.67125 11.7285 6.67125 11.3758 7.02403C11.0231 7.3768 11.0231 7.96071 11.3758 8.31348L11.8075 8.74533L8.74288 11.8047L8.31116 11.3729C7.95848 11.0201 7.37474 11.0201 7.02206 11.3729C6.66939 11.7257 6.66939 12.3096 7.02206 12.6623L8.1409 13.7815L7.27745 14.6452C7.23489 14.6026 7.19232 14.5539 7.14976 14.5114C6.07957 13.4409 4.56549 12.93 3.06966 13.1307ZM13.5648 10.5092L10.5063 13.5686L9.64889 12.711L12.7074 9.65159L13.5648 10.5092ZM5.91539 25.8062C5.48975 25.2102 5.55055 24.3708 6.07957 23.8477C6.10997 23.8173 6.14037 23.7808 6.17078 23.7443C6.29847 23.574 9.23541 19.5293 8.23211 16.2813L9.43607 15.077L9.64889 15.2899C10.0016 15.6427 10.5853 15.6427 10.938 15.2899L15.2856 10.941C15.6383 10.5883 15.6383 10.0044 15.2856 9.65159L15.0728 9.43871L16.2768 8.23441C19.5238 9.24408 23.5674 6.30023 23.7377 6.1725C23.7742 6.14817 23.8107 6.11776 23.8411 6.08127C24.3701 5.55211 25.2031 5.49128 25.799 5.91705L23.0567 8.66017L5.91539 25.8062ZM27.7083 10.0348C26.5895 11.1539 26.2125 10.7768 25.9875 10.5518C25.6348 10.199 25.0511 10.199 24.6984 10.5518C24.3458 10.9046 24.3458 11.4885 24.6984 11.8412C24.9234 12.0663 25.3004 12.4434 24.1816 13.5625C23.0627 14.6817 22.6857 14.3046 22.4608 14.0795C22.1081 13.7267 21.5243 13.7267 21.1717 14.0795C20.819 14.4323 20.819 15.0162 21.1717 15.369C21.3967 15.594 21.7736 15.9711 20.6548 17.0903C19.536 18.2094 19.159 17.8323 18.934 17.6073C18.5813 17.2545 17.9976 17.2545 17.6449 17.6073C17.6388 17.6134 17.6327 17.6194 17.6206 17.6316C17.6145 17.6377 17.6023 17.6438 17.5963 17.6559C17.2436 18.0087 17.2436 18.5926 17.5963 18.9454C17.8212 19.1704 18.1982 19.5475 17.0794 20.6667C15.9606 21.7858 15.5836 21.4087 15.3586 21.1837C15.0059 20.8309 14.4222 20.8309 14.0695 21.1837C13.7168 21.5364 13.7168 22.1204 14.0695 22.4731C14.2945 22.6982 14.6715 23.0753 13.5527 24.1944C12.4338 25.3136 12.0568 24.9365 11.8318 24.7114C11.4792 24.3586 10.8954 24.3586 10.5427 24.7114C10.1901 25.0642 10.1901 25.6481 10.5427 26.0009C10.7677 26.2259 11.1447 26.603 10.0259 27.7222C9.41175 28.3365 8.40845 28.3365 7.78822 27.7222L7.19232 27.1261L24.3458 9.96787L27.1003 7.21258L27.6962 7.80865C28.3225 8.41688 28.3225 9.42046 27.7083 10.0348Z" />
	</symbol>
	<symbol id="earing" viewBox="0 0 30 28">
		<path d="M28.1131 19.6168C28.1972 19.2156 28.2415 18.8003 28.2415 18.3749C28.2415 15.6259 24.2627 8.30523 22.9097 5.89596V5.64752C22.9097 5.33864 23.0495 5.05795 23.2574 4.94904C24.1272 4.4934 24.6674 3.60289 24.6674 2.62499C24.6674 1.17757 23.4847 0 22.0309 0C20.5771 0 19.3943 1.17757 19.3943 2.62499H21.152C21.152 2.14252 21.5463 1.74999 22.0309 1.74999C22.5155 1.74999 22.9097 2.14252 22.9097 2.62499C22.9097 2.95113 22.7293 3.24822 22.4389 3.40035C21.6451 3.81621 21.152 4.67726 21.152 5.64752V5.89818C19.8127 8.30937 15.8789 15.6287 15.8789 18.3749C15.8789 18.8041 15.9236 19.223 16.0083 19.6274C15.7112 19.7876 15.4368 19.9902 15.1949 20.2311C15.1262 20.2995 15.0619 20.3707 15 20.4432C14.9381 20.3706 14.8738 20.2995 14.8051 20.231C14.5631 19.9902 14.2888 19.7876 13.9917 19.6274C14.0764 19.2229 14.1211 18.804 14.1211 18.3749C14.1211 15.6287 10.1873 8.30937 8.84799 5.89818V5.64752C8.84799 5.33864 8.98773 5.05795 9.19566 4.94904C10.0654 4.4934 10.6057 3.60289 10.6057 2.62499C10.6057 1.17757 9.42294 0 7.96913 0C6.51532 0 5.33255 1.17757 5.33255 2.62499H7.09027C7.09027 2.14252 7.48453 1.74999 7.96913 1.74999C8.45373 1.74999 8.84799 2.14252 8.84799 2.62499C8.84799 2.95113 8.66759 3.24822 8.37721 3.40035C7.58337 3.81621 7.09027 4.67726 7.09027 5.64752V5.89596C5.7373 8.30517 1.75853 15.6259 1.75853 18.3749C1.75853 18.8003 1.80282 19.2156 1.8869 19.6168C1.565 19.7815 1.27328 19.9892 1.03048 20.2311C-0.343348 21.5988 -0.343641 23.8129 1.03048 25.1808C2.00162 26.1478 3.49568 26.4535 4.7937 26.0002C5.35898 27.1814 6.56975 27.9999 7.96913 27.9999C9.36763 27.9999 10.5778 27.1825 11.1435 26.0025C12.4073 26.445 13.8402 26.1415 14.8051 25.1809C14.8738 25.1125 14.9381 25.0413 15 24.9688C15.0619 25.0413 15.1262 25.1125 15.1949 25.1809C16.1579 26.1397 17.5901 26.4459 18.8564 26.0025C19.4222 27.1826 20.6323 28 22.0309 28C23.4303 28 24.641 27.1815 25.2063 26.0002C26.5012 26.4526 27.9961 26.1501 28.9695 25.1809C30.3433 23.8132 30.3436 21.5992 28.9696 20.2312C28.7267 19.9892 28.435 19.7814 28.1131 19.6168ZM4.46377 24.2386C3.77012 24.6111 2.83824 24.5057 2.27342 23.9433C1.58651 23.2594 1.58639 22.1525 2.27348 21.4684C2.34069 21.4015 2.41914 21.3396 2.50433 21.2827C3.00159 22.188 3.72348 22.9564 4.59572 23.5151C4.52658 23.7502 4.48217 23.9926 4.46377 24.2386ZM7.96919 26.2499C6.99998 26.2499 6.21147 25.4648 6.21147 24.4999C6.21147 24.4175 6.21739 24.3356 6.22875 24.2548C6.78121 24.4141 7.36518 24.4999 7.96919 24.4999C8.5732 24.4999 9.15693 24.4124 9.7088 24.2501C9.72063 24.3325 9.7269 24.4159 9.7269 24.4999C9.7269 25.4648 8.93839 26.2499 7.96919 26.2499ZM7.96919 22.7499C5.51389 22.7499 3.5163 20.7873 3.5163 18.3749C3.5163 16.6462 5.95133 11.6194 7.96491 7.93482C9.9564 11.6198 12.3635 16.6452 12.3635 18.3749C12.3635 20.7873 10.3922 22.7499 7.96919 22.7499ZM13.5622 23.9433C13.0029 24.5001 12.1444 24.605 11.4747 24.2405C11.456 23.9877 11.4096 23.7389 11.3374 23.4977C12.1827 22.9449 12.8839 22.1907 13.3709 21.3039C13.4382 21.354 13.5022 21.4088 13.5622 21.4685C14.2475 22.1508 14.2475 23.261 13.5622 23.9433ZM18.5253 24.2405C17.8556 24.605 16.9971 24.5001 16.4379 23.9433C15.7526 23.261 15.7526 22.1508 16.4379 21.4685C16.4979 21.4088 16.5619 21.354 16.6292 21.3039C17.1162 22.1907 17.8174 22.9449 18.6627 23.4977C18.5904 23.7388 18.5441 23.9877 18.5253 24.2405ZM22.0309 26.2499C21.0617 26.2499 20.2732 25.4648 20.2732 24.4999C20.2732 24.4159 20.2795 24.3325 20.2913 24.2501C20.8432 24.4123 21.4269 24.4999 22.0309 24.4999C22.6349 24.4999 23.2188 24.4141 23.7714 24.2548C23.7828 24.3356 23.7886 24.4175 23.7886 24.4999C23.7886 25.4648 23.0001 26.2499 22.0309 26.2499ZM22.0309 22.7499C19.6079 22.7499 17.6366 20.7873 17.6366 18.3749C17.6366 16.6452 20.0437 11.6198 22.0352 7.93482C24.0488 11.6194 26.4838 16.6462 26.4838 18.3749C26.4838 20.7873 24.4862 22.7499 22.0309 22.7499ZM27.7266 23.9433C27.1618 24.5056 26.2299 24.6111 25.5363 24.2386C25.5179 23.9926 25.4735 23.7502 25.4043 23.5151C26.2766 22.9564 26.9985 22.188 27.4957 21.2827C27.5809 21.3396 27.6594 21.4015 27.7266 21.4684C28.4137 22.1525 28.4137 23.2593 27.7266 23.9433Z" />
	</symbol>
	<symbol id="fly" viewBox="0 0 30 30">
		<path d="M7.04839 19.1653C7.7171 17.9924 8.32959 16.9518 8.89407 15.8855C8.96434 15.752 8.83669 15.422 8.69967 15.2838C6.33753 12.8995 3.9625 10.5291 1.58631 8.15998C0.868416 7.44244 0.312136 6.62775 0.114218 5.61758C-0.267566 3.67099 0.430419 2.11067 1.97278 0.955356C3.50108 -0.190595 5.17227 -0.31233 6.8575 0.626437C7.34352 0.896829 7.78854 1.27257 8.18789 1.6647C9.92817 3.37367 11.6439 5.10606 13.3689 6.82908C13.5024 6.96252 13.6453 7.0866 13.8128 7.24228C13.931 7.06319 14.0282 6.92273 14.1196 6.77875C15.6959 4.30659 18.626 3.14542 21.4391 3.92382C21.9028 4.05258 22.2237 4.04556 22.4954 3.5317C21.8712 2.91249 21.2259 2.27103 20.5783 1.63192C20.2527 1.3112 20.138 0.94131 20.3488 0.519918C20.6251 -0.0302318 21.2821 -0.115681 21.7787 0.354873C22.3736 0.917899 22.9498 1.50082 23.5178 2.09194C23.7427 2.32605 23.9324 2.40447 24.2767 2.29327C25.3096 1.95967 26.2535 2.19261 27.0253 2.95462C27.8146 3.7342 28.0512 4.69052 27.7151 5.74751C27.6155 6.06122 27.6624 6.24499 27.8884 6.46037C28.4388 6.98594 28.9705 7.53023 29.5057 8.07102C30.0421 8.6118 30.1077 9.08353 29.713 9.49556C29.3207 9.90524 28.7855 9.83735 28.2444 9.29188C27.6553 8.69725 27.078 8.09092 26.5077 7.50214C26.0099 7.75732 25.9326 8.04176 26.0708 8.5287C26.8695 11.3321 25.7218 14.2795 23.2613 15.8621C23.1149 15.9557 22.9674 16.047 22.7507 16.184C22.9135 16.356 23.0493 16.5059 23.1934 16.6498C24.9723 18.4302 26.7688 20.193 28.5255 21.9945C29.7985 23.3008 30.3571 24.8529 29.761 26.6509C29.1591 28.4675 27.8779 29.5889 25.9912 29.9295C24.4301 30.2116 23.1126 29.6252 22.0012 28.5565C21.0596 27.6505 20.1473 26.7129 19.2233 25.7894C17.7606 24.3274 16.2967 22.8677 14.8387 21.401C14.6888 21.25 14.5822 21.0581 14.4592 20.8895C13.2073 21.6035 12.0795 22.245 10.7948 22.9777C11.1262 23.2446 11.412 23.4249 11.638 23.6637C13.1195 25.2217 13.1159 27.3707 11.6462 28.8538C10.1495 30.3638 7.97826 30.3907 6.41365 28.8655C4.62536 27.1203 2.85697 25.3563 1.11669 23.5665C-0.38702 22.0202 -0.358913 19.87 1.12138 18.3799C2.59581 16.8957 4.74715 16.8734 6.3141 18.3389C6.56707 18.5742 6.7767 18.8563 7.04839 19.1653ZM6.90435 23.0292C6.93597 23.0562 6.96642 23.0831 6.99804 23.1088C7.64098 22.7448 8.28509 22.3819 8.92686 22.0167C13.3127 19.5188 17.7067 17.0326 22.082 14.5171C24.6549 13.0376 25.3529 9.79872 23.6478 7.44361C21.5562 4.55474 17.2769 4.80875 15.4675 7.95748C12.6616 12.8398 9.88601 17.7384 7.09992 22.6313C7.02614 22.76 6.96876 22.897 6.90435 23.0292ZM15.8927 20.0725C16.2264 20.3663 16.4981 20.5828 16.7429 20.8263C18.9376 23.0129 21.1147 25.217 23.3257 27.3871C24.4687 28.5108 26.2067 28.4886 27.3321 27.4012C28.4154 26.3536 28.5594 24.5779 27.509 23.4939C25.4232 21.3402 23.2637 19.2578 21.0959 17.1099C19.4224 18.0615 17.7231 19.0295 15.8927 20.0725ZM12.8665 8.95828C10.7128 6.76822 8.61535 4.59805 6.46986 2.47588C5.86674 1.87891 5.05164 1.66236 4.19087 1.84028C3.04552 2.07673 2.2679 2.77085 1.90485 3.87115C1.53829 4.98316 1.88494 5.95587 2.68013 6.75768C5.02588 9.12333 7.38919 11.4726 9.74782 13.8254C9.80988 13.8874 9.89538 13.9248 9.99843 13.9916C10.981 12.2674 11.9425 10.5795 12.8665 8.95828ZM4.1897 24.181C4.88066 22.9684 5.52946 21.8294 6.1888 20.6706C5.77188 20.2644 5.41469 19.8782 5.02002 19.5364C4.17331 18.806 3.10291 18.8504 2.34754 19.6218C1.59099 20.3944 1.5664 21.4666 2.32646 22.293C2.90499 22.9216 3.52568 23.5103 4.1897 24.181ZM5.82926 25.8046C6.51554 26.4893 7.11398 27.1296 7.75926 27.7184C8.51697 28.409 9.62134 28.3751 10.3556 27.6891C11.104 26.9892 11.1941 25.8573 10.5325 25.0554C10.2245 24.682 9.87078 24.3426 9.50891 24.0207C9.41639 23.9376 9.17748 23.9083 9.06857 23.9692C7.99817 24.5568 6.94182 25.169 5.82926 25.8046ZM23.7274 4.87898C24.2052 5.35656 24.6526 5.80487 25.1386 6.29064C25.4771 5.83413 26.2055 5.55203 26.0802 4.73969C26.0111 4.29488 25.7125 3.99406 25.2663 3.92851C24.4582 3.81028 24.1643 4.51845 23.7274 4.87898Z" />
		<path d="M19.6707 7.4284C20.9741 7.4401 22.0879 8.27469 22.4462 9.45927C22.8011 10.6321 22.4064 11.9677 21.3559 12.5986C19.221 13.8815 17.0415 15.0872 14.8738 16.3151C14.4943 16.5305 14.0505 16.5117 13.8268 16.1453C13.6629 15.8773 13.568 15.3904 13.7027 15.1434C14.8972 12.9592 16.1245 10.7913 17.3987 8.65277C17.9023 7.81116 18.7631 7.47054 19.6707 7.4284ZM16.9408 12.9451C16.9795 12.9861 17.0181 13.0271 17.0567 13.068C18.1599 12.4324 19.2901 11.8354 20.3499 11.1331C20.6134 10.9587 20.7598 10.4425 20.7622 10.082C20.7645 9.62548 20.3979 9.32583 19.9377 9.22282C19.4704 9.11864 19.0652 9.28018 18.8263 9.67699C18.1775 10.755 17.5662 11.8542 16.9408 12.9451Z" />
	</symbol>
	<symbol id="something" viewBox="0 0 30 28">
		<path d="M29.4731 13.0934C29.3275 12.7665 29.1899 12.4577 29.1367 12.1886C29.0799 11.9016 29.0887 11.5535 29.0981 11.185C29.1131 10.5855 29.1303 9.90607 28.8616 9.2581C28.588 8.59847 28.0905 8.12717 27.6516 7.71137C27.3885 7.46217 27.14 7.22681 26.9833 6.99287C26.8239 6.75468 26.6997 6.43235 26.5682 6.0911C26.3519 5.52976 26.1068 4.89346 25.6068 4.39346C25.1068 3.89346 24.4705 3.64826 23.9091 3.432C23.5678 3.30053 23.2455 3.17637 23.0073 3.01691C22.7733 2.86028 22.5379 2.61179 22.2887 2.34867C21.873 1.90972 21.4016 1.4122 20.742 1.13866C20.0942 0.870006 19.4146 0.887154 18.8153 0.902239C18.4467 0.91155 18.0986 0.92033 17.8116 0.863524C17.5425 0.810253 17.2336 0.672776 16.9068 0.527166C16.352 0.280024 15.7232 0 15.0001 0C14.277 0 13.6483 0.280024 13.0935 0.527107C12.7666 0.672717 12.4578 0.810194 12.1886 0.863465C11.9017 0.920212 11.5537 0.911373 11.185 0.90218C10.5855 0.887095 9.90613 0.869888 9.25822 1.1386C8.59859 1.41214 8.12728 1.90966 7.71149 2.34862C7.46229 2.61173 7.22687 2.86022 6.99293 3.01685C6.75474 3.17631 6.43241 3.30047 6.09116 3.43194C5.52982 3.6482 4.89352 3.8934 4.39346 4.3934C3.89352 4.8934 3.64832 5.52964 3.43212 6.09098C3.30065 6.43223 3.17643 6.75457 3.01691 6.99281C2.86028 7.22681 2.61179 7.46217 2.34867 7.71137C1.90972 8.12717 1.4122 8.59841 1.13866 9.2581C0.870006 9.90607 0.887154 10.5854 0.902239 11.1849C0.91155 11.5534 0.920389 11.9015 0.863583 12.1885C0.810371 12.4577 0.672834 12.7665 0.527224 13.0933C0.280082 13.6482 0 14.2771 0 15.0001C0 15.7232 0.280082 16.352 0.527107 16.9068C0.672716 17.2337 0.810253 17.5425 0.863465 17.8117C0.920271 18.0986 0.911432 18.4467 0.902121 18.8153C0.887036 19.4148 0.869888 20.0942 1.13854 20.7422C1.41214 21.4018 1.90966 21.8731 2.34862 22.2889C2.61173 22.5381 2.86022 22.7735 3.01685 23.0075C3.17631 23.2457 3.30047 23.568 3.432 23.9093C3.64826 24.4707 3.8934 25.1069 4.3934 25.607C4.8934 26.1069 5.52964 26.3521 6.09104 26.5683C6.43229 26.6998 6.75468 26.824 6.99287 26.9834C7.22687 27.1401 7.46229 27.3886 7.71143 27.6517C8.12722 28.0906 8.59853 28.5882 9.25816 28.8617C9.90607 29.1304 10.5856 29.1131 11.185 29.0981C11.5536 29.0887 11.9016 29.08 12.1885 29.1368C12.4577 29.19 12.7665 29.3275 13.0933 29.4731C13.6481 29.7202 14.277 30.0003 15 30.0003C15.723 30.0003 16.3519 29.7203 16.9066 29.4731C17.2335 29.3275 17.5423 29.19 17.8114 29.1368C18.0985 29.08 18.4467 29.0888 18.815 29.0981C19.4147 29.1131 20.0939 29.1303 20.742 28.8617C21.4015 28.5882 21.8728 28.0906 22.2886 27.6517C22.5378 27.3886 22.7732 27.1401 23.0072 26.9834C23.2454 26.824 23.5677 26.6998 23.909 26.5684C24.4704 26.3521 25.1066 26.1069 25.6067 25.6069C26.1066 25.1069 26.3518 24.4707 26.568 23.9093C26.6995 23.5681 26.8237 23.2457 26.9832 23.0075C27.1398 22.7735 27.3883 22.5381 27.6514 22.289C28.0904 21.8732 28.5879 21.4019 28.8615 20.7423C29.1301 20.0943 29.113 19.4149 29.0979 18.8154C29.0886 18.4469 29.0797 18.0988 29.1365 17.8118C29.1897 17.5427 29.3273 17.2339 29.4729 16.907C29.7199 16.3522 30 15.7234 30 15.0004C30.0002 14.2771 29.7202 13.6482 29.4731 13.0934ZM8.99487 3.56435C9.31797 3.22322 9.62316 2.90106 9.9353 2.7716C10.2366 2.64661 10.6757 2.65769 11.1404 2.66942C11.5682 2.68032 12.0527 2.69246 12.5316 2.5977C12.9956 2.50589 13.411 2.32092 13.8127 2.14207C14.2448 1.94956 14.6529 1.76783 15.0001 1.76783C15.3473 1.76783 15.7555 1.94956 16.1875 2.14207C16.5892 2.32098 17.0046 2.50595 17.4685 2.5977C17.9474 2.6924 18.4321 2.68014 18.8598 2.66942C19.3246 2.65763 19.7635 2.64661 20.0648 2.77154C20.377 2.90094 20.6821 3.22316 21.0052 3.56429C21.1807 3.7495 21.3601 3.93801 21.5562 4.11573C21.1738 5.99965 20.1311 7.69411 18.6241 8.88474C17.5622 8.25304 16.3229 7.88951 15.0001 7.88951C13.6632 7.88951 12.4114 8.26064 11.342 8.90483C9.83866 7.71626 8.7967 6.02634 8.41008 4.14649C8.61962 3.95999 8.80931 3.76022 8.99487 3.56435ZM18.0113 20.6555C18.159 20.285 18.2411 19.8815 18.2411 19.459C18.2411 19.0364 18.159 18.6329 18.0113 18.2625C19.1725 17.8572 20.394 17.6391 21.6042 17.6252C21.9592 18.8246 21.9592 20.0933 21.6042 21.2928C20.394 21.2787 19.1725 21.0607 18.0113 20.6555ZM8.39652 21.2928C8.04148 20.0933 8.04148 18.8246 8.39652 17.6252C9.60695 17.6391 10.8284 17.857 11.9892 18.2619C11.8413 18.6325 11.7591 19.0362 11.7591 19.459C11.7591 19.8817 11.8413 20.2854 11.9892 20.656C10.8283 21.0609 9.60695 21.2788 8.39652 21.2928ZM14.0228 9.74726C13.6887 11.0611 12.496 12.0359 11.0796 12.0359H10.5572C11.3434 10.8614 12.5826 10.0146 14.0228 9.74726ZM13.5269 19.459C13.5269 18.6467 14.1878 17.9858 15.0001 17.9858C15.8124 17.9858 16.4733 18.6467 16.4733 19.459C16.4733 20.2713 15.8124 20.9322 15.0001 20.9322C14.1878 20.9322 13.5269 20.2713 13.5269 19.459ZM16.8599 16.807C16.333 16.4364 15.6918 16.2179 15.0001 16.2179C14.3087 16.2179 13.6677 16.4362 13.141 16.8066C12.0549 16.3709 10.9124 16.0806 9.75969 15.9454C9.70035 15.6064 9.65734 15.2546 9.65734 15.0001C9.65734 14.5889 9.70412 14.1884 9.79246 13.8037H11.0796C12.6969 13.8037 14.129 12.9996 15.0001 11.7711C15.8712 12.9996 17.3034 13.8037 18.9206 13.8037H20.2078C20.2961 14.1884 20.3429 14.5889 20.3429 15.0001C20.3429 15.2614 20.2979 15.6092 20.2358 15.9456C19.0847 16.0811 17.9445 16.3717 16.8599 16.807ZM18.9206 12.0359C17.5043 12.0359 16.3115 11.0611 15.9774 9.74726C17.4176 10.0146 18.6567 10.8614 19.443 12.0359H18.9206ZM6.72663 24.9186C6.29057 24.7506 5.87855 24.5919 5.64349 24.3568C5.40843 24.1217 5.24968 23.7098 5.08167 23.2737C4.9211 22.8569 4.75516 22.426 4.48598 22.0239C4.21945 21.6258 3.88639 21.3104 3.56435 21.0053C3.22322 20.6822 2.901 20.377 2.77166 20.065C2.64667 19.7636 2.65775 19.3246 2.66953 18.8599C2.68032 18.4322 2.69257 17.9476 2.59776 17.4685C2.50595 17.0046 2.32104 16.5893 2.14213 16.1876C1.94962 15.7555 1.76783 15.3473 1.76783 15.0001C1.76783 14.6529 1.94962 14.2448 2.14207 13.8127C2.32098 13.411 2.50595 12.9956 2.5977 12.5317C2.69246 12.0527 2.6802 11.568 2.66948 11.1404C2.65775 10.6757 2.64661 10.2367 2.7716 9.93536C2.90094 9.62328 3.22316 9.31803 3.56429 8.99499C3.88633 8.68998 4.21927 8.37454 4.4858 7.97643C4.75498 7.57431 4.9211 7.14343 5.08161 6.72669C5.24962 6.29057 5.40831 5.87861 5.64337 5.64355C5.87849 5.40843 6.29045 5.24968 6.72663 5.08167C6.75356 5.0713 6.78067 5.06075 6.80772 5.05032C7.32127 6.98244 8.40996 8.72121 9.92416 10.026C8.66635 11.3093 7.88939 13.0656 7.88939 15.0002C7.88939 15.2642 7.91632 15.5633 7.95692 15.8602L7.16075 15.8734L6.94349 16.4219C6.16788 18.3804 6.16788 20.5376 6.94349 22.4961L7.16075 23.0447L8.06517 23.0596C8.13382 23.0608 8.20248 23.0613 8.27124 23.0613C8.29947 23.0613 8.32775 23.0604 8.35604 23.0602C8.04325 23.7707 7.78615 24.5268 7.59623 25.2923C7.30907 25.1439 7.01455 25.0295 6.72663 24.9186ZM20.0649 27.2286C19.7636 27.3536 19.3247 27.3426 18.8598 27.3308C18.4324 27.3199 17.9476 27.3077 17.4686 27.4025C17.0047 27.4943 16.5893 27.6793 16.1876 27.8582C15.7555 28.0506 15.3473 28.2324 15.0002 28.2324C14.653 28.2324 14.2448 28.0506 13.8127 27.8582C13.4111 27.6793 12.9957 27.4943 12.5318 27.4025C12.2104 27.3389 11.8865 27.3235 11.579 27.3235C11.4281 27.3235 11.2812 27.3272 11.1405 27.3308C10.6758 27.3425 10.2367 27.3536 9.93547 27.2287C9.66788 27.1177 9.40542 26.8651 9.13241 26.5803C9.34909 25.2867 9.80454 23.9756 10.4183 22.8787C11.3467 22.7217 12.2624 22.4641 13.1412 22.1115C13.668 22.4817 14.3089 22.7001 15.0002 22.7001C15.6919 22.7001 16.333 22.4816 16.8599 22.1111C17.7297 22.4602 18.6354 22.716 19.5537 22.8735C20.1841 23.9757 20.6497 25.2892 20.8679 26.5806C20.5948 26.8651 20.3324 27.1177 20.0649 27.2286ZM27.8582 16.1876C27.6793 16.5892 27.4943 17.0046 27.4025 17.4685C27.3078 17.9475 27.32 18.4322 27.3308 18.8598C27.3425 19.3246 27.3536 19.7636 27.2286 20.0649C27.0993 20.377 26.7771 20.6822 26.4359 21.0053C26.1139 21.3103 25.781 21.6257 25.5144 22.0238C25.2453 22.4259 25.0791 22.8568 24.9187 23.2735C24.7506 23.7097 24.5919 24.1216 24.3569 24.3567C24.1217 24.5918 23.7098 24.7505 23.2737 24.9185C22.9849 25.0298 22.6895 25.1445 22.4015 25.2935C22.209 24.5286 21.9473 23.772 21.628 23.0599C21.6619 23.0602 21.6959 23.0613 21.7298 23.0613C21.7983 23.0613 21.8671 23.0607 21.9355 23.0596L22.8399 23.0446L23.0572 22.4961C23.8328 20.5376 23.8328 18.3804 23.0572 16.4219L22.8399 15.8733L22.0417 15.8601C22.0819 15.5786 22.1108 15.2794 22.1108 15.0001C22.1108 13.0521 21.3232 11.2847 20.0499 9.99918C21.5589 8.69658 22.6437 6.9624 23.1553 5.03583C23.1948 5.05115 23.2343 5.06641 23.2736 5.08156C23.7097 5.24962 24.1217 5.40831 24.3568 5.64343C24.5919 5.87855 24.7506 6.29045 24.9186 6.72658C25.0792 7.14331 25.2451 7.57419 25.5143 7.97631C25.7808 8.37443 26.1139 8.68981 26.4359 8.99487C26.7771 9.31797 27.0993 9.62316 27.2286 9.93524C27.3536 10.2366 27.3425 10.6756 27.3308 11.1404C27.32 11.568 27.3077 12.0527 27.4025 12.5316C27.4943 12.9956 27.6793 13.411 27.8582 13.8126C28.0506 14.2447 28.2324 14.6529 28.2324 15.0001C28.2324 15.3473 28.0506 15.7555 27.8582 16.1876Z" />
		<path d="M14.1329 3.86328H15.9007V5.62663H14.1329V3.86328Z" />
		<path d="M14.1329 24.3301H15.9007V26.0934H14.1329V24.3301Z" />
		<path d="M4.26324 13.6006L4.57085 11.8593L6.30774 12.1661L6.00014 13.9074L4.26324 13.6006Z" />
		<path d="M23.7063 12.1963L25.4432 11.8895L25.7508 13.6308L24.0139 13.9376L23.7063 12.1963Z" />
	</symbol>
</svg>
